<?xml version="1.0" encoding="UTF-8" standalone="no"?>
<!DOCTYPE svg PUBLIC "-//W3C//DTD SVG 1.1//EN"
 "http://www.w3.org/Graphics/SVG/1.1/DTD/svg11.dtd">
<!-- Generated by graphviz version 2.42.3 (20191010.1750)
 -->
<!-- Title: snakemake_dag Pages: 1 -->
<svg width="1298pt" height="620pt"
 viewBox="0.00 0.00 1297.50 620.00" xmlns="http://www.w3.org/2000/svg" xmlns:xlink="http://www.w3.org/1999/xlink">
<g id="graph0" class="graph" transform="scale(1 1) rotate(0) translate(4 616)">
<title>snakemake_dag</title>
<polygon fill="white" stroke="transparent" points="-4,4 -4,-616 1293.5,-616 1293.5,4 -4,4"/>
<!-- 0 -->
<g id="node1" class="node">
<title>0</title>
<path fill="none" stroke="#56d8b9" stroke-width="2" d="M804.5,-36C804.5,-36 774.5,-36 774.5,-36 768.5,-36 762.5,-30 762.5,-24 762.5,-24 762.5,-12 762.5,-12 762.5,-6 768.5,0 774.5,0 774.5,0 804.5,0 804.5,0 810.5,0 816.5,-6 816.5,-12 816.5,-12 816.5,-24 816.5,-24 816.5,-30 810.5,-36 804.5,-36"/>
<text text-anchor="middle" x="789.5" y="-15.5" font-family="sans" font-size="10.00">all</text>
</g>
<!-- 1 -->
<g id="node2" class="node">
<title>1</title>
<path fill="none" stroke="#d8a456" stroke-width="2" stroke-dasharray="5,2" d="M197,-612C197,-612 12,-612 12,-612 6,-612 0,-606 0,-600 0,-600 0,-588 0,-588 0,-582 6,-576 12,-576 12,-576 197,-576 197,-576 203,-576 209,-582 209,-588 209,-588 209,-600 209,-600 209,-606 203,-612 197,-612"/>
<text text-anchor="middle" x="104.5" y="-597" font-family="sans" font-size="10.00">download_Illumina_FQ_FromSRA_RunID</text>
<text text-anchor="middle" x="104.5" y="-586" font-family="sans" font-size="10.00">sampleID_WiIllumina: SRR11140748</text>
</g>
<!-- 1&#45;&gt;0 -->
<g id="edge1" class="edge">
<title>1&#45;&gt;0</title>
<path fill="none" stroke="grey" stroke-width="2" d="M83.85,-575.58C57,-550.87 13.5,-502.83 13.5,-451 13.5,-451 13.5,-451 13.5,-161 13.5,-99.82 61.94,-95.31 118.5,-72 234.63,-24.13 628.92,-19.28 752.29,-18.96"/>
<polygon fill="grey" stroke="grey" stroke-width="2" points="752.38,-22.46 762.37,-18.94 752.37,-15.46 752.38,-22.46"/>
</g>
<!-- 17 -->
<g id="node18" class="node">
<title>17</title>
<path fill="none" stroke="#ced856" stroke-width="2" stroke-dasharray="5,2" d="M332.5,-540C332.5,-540 162.5,-540 162.5,-540 156.5,-540 150.5,-534 150.5,-528 150.5,-528 150.5,-516 150.5,-516 150.5,-510 156.5,-504 162.5,-504 162.5,-504 332.5,-504 332.5,-504 338.5,-504 344.5,-510 344.5,-516 344.5,-516 344.5,-528 344.5,-528 344.5,-534 338.5,-540 332.5,-540"/>
<text text-anchor="middle" x="247.5" y="-519.5" font-family="sans" font-size="10.00">trimmomatic_Illumina_PE_Trimming</text>
</g>
<!-- 1&#45;&gt;17 -->
<g id="edge30" class="edge">
<title>1&#45;&gt;17</title>
<path fill="none" stroke="grey" stroke-width="2" d="M139.48,-575.88C158.7,-566.47 182.73,-554.71 203.24,-544.67"/>
<polygon fill="grey" stroke="grey" stroke-width="2" points="204.94,-547.73 212.38,-540.19 201.86,-541.44 204.94,-547.73"/>
</g>
<!-- 2 -->
<g id="node3" class="node">
<title>2</title>
<path fill="none" stroke="#56d86b" stroke-width="2" stroke-dasharray="5,2" d="M373.5,-252C373.5,-252 121.5,-252 121.5,-252 115.5,-252 109.5,-246 109.5,-240 109.5,-240 109.5,-228 109.5,-228 109.5,-222 115.5,-216 121.5,-216 121.5,-216 373.5,-216 373.5,-216 379.5,-216 385.5,-222 385.5,-228 385.5,-228 385.5,-240 385.5,-240 385.5,-246 379.5,-252 373.5,-252"/>
<text text-anchor="middle" x="247.5" y="-231.5" font-family="sans" font-size="10.00">rename_SPAdesAssembly_WithBioAWK_And_IndexFA</text>
</g>
<!-- 2&#45;&gt;0 -->
<g id="edge2" class="edge">
<title>2&#45;&gt;0</title>
<path fill="none" stroke="grey" stroke-width="2" d="M142.71,-215.95C90.59,-202.66 43.85,-180.22 70.5,-144 152.29,-32.84 615.55,-20.35 751.81,-19.09"/>
<polygon fill="grey" stroke="grey" stroke-width="2" points="752.17,-22.59 762.14,-19.02 752.12,-15.59 752.17,-22.59"/>
</g>
<!-- 3 -->
<g id="node4" class="node">
<title>3</title>
<path fill="none" stroke="#d8bc56" stroke-width="2" stroke-dasharray="5,2" d="M301.5,-180C301.5,-180 91.5,-180 91.5,-180 85.5,-180 79.5,-174 79.5,-168 79.5,-168 79.5,-156 79.5,-156 79.5,-150 85.5,-144 91.5,-144 91.5,-144 301.5,-144 301.5,-144 307.5,-144 313.5,-150 313.5,-156 313.5,-156 313.5,-168 313.5,-168 313.5,-174 307.5,-180 301.5,-180"/>
<text text-anchor="middle" x="196.5" y="-159.5" font-family="sans" font-size="10.00">Minimap2_Ill_SPAdes_Assembly_AlignTo_Ref</text>
</g>
<!-- 2&#45;&gt;3 -->
<g id="edge14" class="edge">
<title>2&#45;&gt;3</title>
<path fill="none" stroke="grey" stroke-width="2" d="M234.89,-215.7C228.9,-207.47 221.62,-197.48 215.02,-188.42"/>
<polygon fill="grey" stroke="grey" stroke-width="2" points="217.68,-186.13 208.96,-180.1 212.02,-190.25 217.68,-186.13"/>
</g>
<!-- 4 -->
<g id="node5" class="node">
<title>4</title>
<path fill="none" stroke="#8fd856" stroke-width="2" stroke-dasharray="5,2" d="M619.5,-180C619.5,-180 343.5,-180 343.5,-180 337.5,-180 331.5,-174 331.5,-168 331.5,-168 331.5,-156 331.5,-156 331.5,-150 337.5,-144 343.5,-144 343.5,-144 619.5,-144 619.5,-144 625.5,-144 631.5,-150 631.5,-156 631.5,-156 631.5,-168 631.5,-168 631.5,-174 625.5,-180 619.5,-180"/>
<text text-anchor="middle" x="481.5" y="-159.5" font-family="sans" font-size="10.00">NucDiff_Ill_SPAdes_Assembly_AlignTo_Ref_WithVCFoutput</text>
</g>
<!-- 2&#45;&gt;4 -->
<g id="edge15" class="edge">
<title>2&#45;&gt;4</title>
<path fill="none" stroke="grey" stroke-width="2" d="M304.44,-215.97C337.71,-206.01 379.86,-193.41 414.69,-182.99"/>
<polygon fill="grey" stroke="grey" stroke-width="2" points="415.72,-186.33 424.3,-180.11 413.72,-179.62 415.72,-186.33"/>
</g>
<!-- 5 -->
<g id="node6" class="node">
<title>5</title>
<path fill="none" stroke="#56d87b" stroke-width="2" stroke-dasharray="5,2" d="M696.5,-108C696.5,-108 434.5,-108 434.5,-108 428.5,-108 422.5,-102 422.5,-96 422.5,-96 422.5,-84 422.5,-84 422.5,-78 428.5,-72 434.5,-72 434.5,-72 696.5,-72 696.5,-72 702.5,-72 708.5,-78 708.5,-84 708.5,-84 708.5,-96 708.5,-96 708.5,-102 702.5,-108 696.5,-108"/>
<text text-anchor="middle" x="565.5" y="-87.5" font-family="sans" font-size="10.00">SVanalyzer_SVrefine_Ill_SPAdes_Assembly_AlignTo_Ref</text>
</g>
<!-- 2&#45;&gt;5 -->
<g id="edge17" class="edge">
<title>2&#45;&gt;5</title>
<path fill="none" stroke="grey" stroke-width="2" d="M385.63,-223.22C491.94,-214.24 623.54,-199.41 640.5,-180 651.03,-167.95 647.86,-158.21 640.5,-144 634.13,-131.7 623.45,-121.65 612.12,-113.73"/>
<polygon fill="grey" stroke="grey" stroke-width="2" points="613.68,-110.58 603.38,-108.09 609.89,-116.46 613.68,-110.58"/>
</g>
<!-- 3&#45;&gt;0 -->
<g id="edge3" class="edge">
<title>3&#45;&gt;0</title>
<path fill="none" stroke="grey" stroke-width="2" d="M228.84,-143.83C268.76,-123.42 339.24,-89.87 403.5,-72 528.4,-37.26 682.64,-24.83 752.28,-20.78"/>
<polygon fill="grey" stroke="grey" stroke-width="2" points="752.53,-24.27 762.32,-20.22 752.14,-17.28 752.53,-24.27"/>
</g>
<!-- 4&#45;&gt;0 -->
<g id="edge4" class="edge">
<title>4&#45;&gt;0</title>
<path fill="none" stroke="grey" stroke-width="2" d="M448.14,-143.86C434.79,-135.09 420.86,-123.06 413.5,-108 406.48,-93.62 403.01,-84.08 413.5,-72 457.19,-21.72 666.18,-17.8 752.29,-18.37"/>
<polygon fill="grey" stroke="grey" stroke-width="2" points="752.37,-21.87 762.4,-18.46 752.43,-14.87 752.37,-21.87"/>
</g>
<!-- 4&#45;&gt;5 -->
<g id="edge16" class="edge">
<title>4&#45;&gt;5</title>
<path fill="none" stroke="grey" stroke-width="2" d="M502.26,-143.7C512.74,-134.97 525.61,-124.24 537,-114.75"/>
<polygon fill="grey" stroke="grey" stroke-width="2" points="539.53,-117.19 544.97,-108.1 535.05,-111.82 539.53,-117.19"/>
</g>
<!-- 5&#45;&gt;0 -->
<g id="edge5" class="edge">
<title>5&#45;&gt;0</title>
<path fill="none" stroke="grey" stroke-width="2" d="M620.01,-71.97C661.2,-59.09 716.63,-41.77 752.71,-30.5"/>
<polygon fill="grey" stroke="grey" stroke-width="2" points="753.84,-33.81 762.34,-27.49 751.75,-27.13 753.84,-33.81"/>
</g>
<!-- 6 -->
<g id="node7" class="node">
<title>6</title>
<path fill="none" stroke="#56d892" stroke-width="2" stroke-dasharray="5,2" d="M1090.5,-396C1090.5,-396 898.5,-396 898.5,-396 892.5,-396 886.5,-390 886.5,-384 886.5,-384 886.5,-372 886.5,-372 886.5,-366 892.5,-360 898.5,-360 898.5,-360 1090.5,-360 1090.5,-360 1096.5,-360 1102.5,-366 1102.5,-372 1102.5,-372 1102.5,-384 1102.5,-384 1102.5,-390 1096.5,-396 1090.5,-396"/>
<text text-anchor="middle" x="994.5" y="-381" font-family="sans" font-size="10.00">download_Nanopore_FQ_FromSRA_RunID</text>
<text text-anchor="middle" x="994.5" y="-370" font-family="sans" font-size="10.00">sampleID_WiNanopore: SRR11140747</text>
</g>
<!-- 6&#45;&gt;0 -->
<g id="edge6" class="edge">
<title>6&#45;&gt;0</title>
<path fill="none" stroke="grey" stroke-width="2" d="M990.08,-359.86C974.93,-302.24 923.8,-116.6 882.5,-72 866.95,-55.2 844.83,-42.3 826.06,-33.43"/>
<polygon fill="grey" stroke="grey" stroke-width="2" points="827.44,-30.21 816.89,-29.28 824.56,-36.59 827.44,-30.21"/>
</g>
<!-- 20 -->
<g id="node21" class="node">
<title>20</title>
<path fill="none" stroke="#567bd8" stroke-width="2" stroke-dasharray="5,2" d="M1078,-324C1078,-324 1029,-324 1029,-324 1023,-324 1017,-318 1017,-312 1017,-312 1017,-300 1017,-300 1017,-294 1023,-288 1029,-288 1029,-288 1078,-288 1078,-288 1084,-288 1090,-294 1090,-300 1090,-300 1090,-312 1090,-312 1090,-318 1084,-324 1078,-324"/>
<text text-anchor="middle" x="1053.5" y="-303.5" font-family="sans" font-size="10.00">nanofilt_QC</text>
</g>
<!-- 6&#45;&gt;20 -->
<g id="edge33" class="edge">
<title>6&#45;&gt;20</title>
<path fill="none" stroke="grey" stroke-width="2" d="M1009.08,-359.7C1016.16,-351.3 1024.78,-341.07 1032.55,-331.86"/>
<polygon fill="grey" stroke="grey" stroke-width="2" points="1035.31,-334.01 1039.08,-324.1 1029.96,-329.49 1035.31,-334.01"/>
</g>
<!-- 7 -->
<g id="node8" class="node">
<title>7</title>
<path fill="none" stroke="#d8cb56" stroke-width="2" stroke-dasharray="5,2" d="M1042,-108C1042,-108 959,-108 959,-108 953,-108 947,-102 947,-96 947,-96 947,-84 947,-84 947,-78 953,-72 959,-72 959,-72 1042,-72 1042,-72 1048,-72 1054,-78 1054,-84 1054,-84 1054,-96 1054,-96 1054,-102 1048,-108 1042,-108"/>
<text text-anchor="middle" x="1000.5" y="-87.5" font-family="sans" font-size="10.00">ONT_MM2_Sniffles</text>
</g>
<!-- 7&#45;&gt;0 -->
<g id="edge7" class="edge">
<title>7&#45;&gt;0</title>
<path fill="none" stroke="grey" stroke-width="2" d="M949.15,-71.97C911.07,-59.33 860.07,-42.41 826.07,-31.13"/>
<polygon fill="grey" stroke="grey" stroke-width="2" points="827.12,-27.79 816.52,-27.97 824.91,-34.44 827.12,-27.79"/>
</g>
<!-- 8 -->
<g id="node9" class="node">
<title>8</title>
<path fill="none" stroke="#56d0d8" stroke-width="2" stroke-dasharray="5,2" d="M1155,-108C1155,-108 1084,-108 1084,-108 1078,-108 1072,-102 1072,-96 1072,-96 1072,-84 1072,-84 1072,-78 1078,-72 1084,-72 1084,-72 1155,-72 1155,-72 1161,-72 1167,-78 1167,-84 1167,-84 1167,-96 1167,-96 1167,-102 1161,-108 1155,-108"/>
<text text-anchor="middle" x="1119.5" y="-87.5" font-family="sans" font-size="10.00">ONT_MM2_SVIM</text>
</g>
<!-- 8&#45;&gt;0 -->
<g id="edge8" class="edge">
<title>8&#45;&gt;0</title>
<path fill="none" stroke="grey" stroke-width="2" d="M1071.7,-74.37C1068.59,-73.54 1065.51,-72.74 1062.5,-72 978.98,-51.49 879.52,-33.86 826.73,-25.04"/>
<polygon fill="grey" stroke="grey" stroke-width="2" points="827.25,-21.57 816.82,-23.39 826.11,-28.48 827.25,-21.57"/>
</g>
<!-- 9 -->
<g id="node10" class="node">
<title>9</title>
<path fill="none" stroke="#56d8d0" stroke-width="2" stroke-dasharray="5,2" d="M1277.5,-108C1277.5,-108 1197.5,-108 1197.5,-108 1191.5,-108 1185.5,-102 1185.5,-96 1185.5,-96 1185.5,-84 1185.5,-84 1185.5,-78 1191.5,-72 1197.5,-72 1197.5,-72 1277.5,-72 1277.5,-72 1283.5,-72 1289.5,-78 1289.5,-84 1289.5,-84 1289.5,-96 1289.5,-96 1289.5,-102 1283.5,-108 1277.5,-108"/>
<text text-anchor="middle" x="1237.5" y="-87.5" font-family="sans" font-size="10.00">ONT_MM2_cuteSV</text>
</g>
<!-- 9&#45;&gt;0 -->
<g id="edge9" class="edge">
<title>9&#45;&gt;0</title>
<path fill="none" stroke="grey" stroke-width="2" d="M1185.19,-74.14C1181.92,-73.37 1178.67,-72.65 1175.5,-72 1048.81,-46.05 896.06,-29.3 826.84,-22.48"/>
<polygon fill="grey" stroke="grey" stroke-width="2" points="827.14,-18.99 816.85,-21.51 826.47,-25.96 827.14,-18.99"/>
</g>
<!-- 10 -->
<g id="node11" class="node">
<title>10</title>
<path fill="none" stroke="#d89556" stroke-width="2" d="M768.5,-108C768.5,-108 738.5,-108 738.5,-108 732.5,-108 726.5,-102 726.5,-96 726.5,-96 726.5,-84 726.5,-84 726.5,-78 732.5,-72 738.5,-72 738.5,-72 768.5,-72 768.5,-72 774.5,-72 780.5,-78 780.5,-84 780.5,-84 780.5,-96 780.5,-96 780.5,-102 774.5,-108 768.5,-108"/>
<text text-anchor="middle" x="753.5" y="-87.5" font-family="sans" font-size="10.00">delly</text>
</g>
<!-- 10&#45;&gt;0 -->
<g id="edge10" class="edge">
<title>10&#45;&gt;0</title>
<path fill="none" stroke="grey" stroke-width="2" d="M762.4,-71.7C766.5,-63.73 771.45,-54.1 775.99,-45.26"/>
<polygon fill="grey" stroke="grey" stroke-width="2" points="779.24,-46.6 780.7,-36.1 773.02,-43.4 779.24,-46.6"/>
</g>
<!-- 11 -->
<g id="node12" class="node">
<title>11</title>
<path fill="none" stroke="#68d856" stroke-width="2" d="M840.5,-108C840.5,-108 810.5,-108 810.5,-108 804.5,-108 798.5,-102 798.5,-96 798.5,-96 798.5,-84 798.5,-84 798.5,-78 804.5,-72 810.5,-72 810.5,-72 840.5,-72 840.5,-72 846.5,-72 852.5,-78 852.5,-84 852.5,-84 852.5,-96 852.5,-96 852.5,-102 846.5,-108 840.5,-108"/>
<text text-anchor="middle" x="825.5" y="-87.5" font-family="sans" font-size="10.00">manta</text>
</g>
<!-- 11&#45;&gt;0 -->
<g id="edge11" class="edge">
<title>11&#45;&gt;0</title>
<path fill="none" stroke="grey" stroke-width="2" d="M816.6,-71.7C812.5,-63.73 807.55,-54.1 803.01,-45.26"/>
<polygon fill="grey" stroke="grey" stroke-width="2" points="805.98,-43.4 798.3,-36.1 799.76,-46.6 805.98,-43.4"/>
</g>
<!-- 12 -->
<g id="node13" class="node">
<title>12</title>
<path fill="none" stroke="#56b9d8" stroke-width="2" d="M895.5,-180C895.5,-180 865.5,-180 865.5,-180 859.5,-180 853.5,-174 853.5,-168 853.5,-168 853.5,-156 853.5,-156 853.5,-150 859.5,-144 865.5,-144 865.5,-144 895.5,-144 895.5,-144 901.5,-144 907.5,-150 907.5,-156 907.5,-156 907.5,-168 907.5,-168 907.5,-174 901.5,-180 895.5,-180"/>
<text text-anchor="middle" x="880.5" y="-159.5" font-family="sans" font-size="10.00">lumpy</text>
</g>
<!-- 12&#45;&gt;0 -->
<g id="edge12" class="edge">
<title>12&#45;&gt;0</title>
<path fill="none" stroke="grey" stroke-width="2" d="M880.38,-143.9C879.49,-124.91 875.73,-94.03 861.5,-72 852.52,-58.09 838.53,-46.58 825.26,-37.87"/>
<polygon fill="grey" stroke="grey" stroke-width="2" points="827.04,-34.86 816.7,-32.56 823.35,-40.81 827.04,-34.86"/>
</g>
<!-- 13 -->
<g id="node14" class="node">
<title>13</title>
<path fill="none" stroke="#566bd8" stroke-width="2" stroke-dasharray="5,2" d="M347,-468C347,-468 148,-468 148,-468 142,-468 136,-462 136,-456 136,-456 136,-444 136,-444 136,-438 142,-432 148,-432 148,-432 347,-432 347,-432 353,-432 359,-438 359,-444 359,-444 359,-456 359,-456 359,-462 353,-468 347,-468"/>
<text text-anchor="middle" x="247.5" y="-447.5" font-family="sans" font-size="10.00">unicycler_SPAdes_Assemble_IlluminaWGS</text>
</g>
<!-- 13&#45;&gt;2 -->
<g id="edge13" class="edge">
<title>13&#45;&gt;2</title>
<path fill="none" stroke="grey" stroke-width="2" d="M247.5,-431.85C247.5,-394.83 247.5,-307.18 247.5,-262.39"/>
<polygon fill="grey" stroke="grey" stroke-width="2" points="251,-262.23 247.5,-252.23 244,-262.23 251,-262.23"/>
</g>
<!-- 14 -->
<g id="node15" class="node">
<title>14</title>
<path fill="none" stroke="#56d8a9" stroke-width="2" stroke-dasharray="5,2" d="M1194.5,-180C1194.5,-180 1038.5,-180 1038.5,-180 1032.5,-180 1026.5,-174 1026.5,-168 1026.5,-168 1026.5,-156 1026.5,-156 1026.5,-150 1032.5,-144 1038.5,-144 1038.5,-144 1194.5,-144 1194.5,-144 1200.5,-144 1206.5,-150 1206.5,-156 1206.5,-156 1206.5,-168 1206.5,-168 1206.5,-174 1200.5,-180 1194.5,-180"/>
<text text-anchor="middle" x="1116.5" y="-159.5" font-family="sans" font-size="10.00">samtools_Processing_ONT_Reads</text>
</g>
<!-- 14&#45;&gt;7 -->
<g id="edge18" class="edge">
<title>14&#45;&gt;7</title>
<path fill="none" stroke="grey" stroke-width="2" d="M1088.12,-143.88C1072.96,-134.72 1054.09,-123.34 1037.76,-113.48"/>
<polygon fill="grey" stroke="grey" stroke-width="2" points="1039.36,-110.36 1028.99,-108.19 1035.74,-116.35 1039.36,-110.36"/>
</g>
<!-- 14&#45;&gt;8 -->
<g id="edge19" class="edge">
<title>14&#45;&gt;8</title>
<path fill="none" stroke="grey" stroke-width="2" d="M1117.24,-143.7C1117.57,-135.98 1117.97,-126.71 1118.34,-118.11"/>
<polygon fill="grey" stroke="grey" stroke-width="2" points="1121.84,-118.25 1118.77,-108.1 1114.84,-117.95 1121.84,-118.25"/>
</g>
<!-- 14&#45;&gt;9 -->
<g id="edge20" class="edge">
<title>14&#45;&gt;9</title>
<path fill="none" stroke="grey" stroke-width="2" d="M1146.1,-143.88C1162.07,-134.64 1181.96,-123.13 1199.11,-113.21"/>
<polygon fill="grey" stroke="grey" stroke-width="2" points="1200.88,-116.23 1207.79,-108.19 1197.38,-110.17 1200.88,-116.23"/>
</g>
<!-- 15 -->
<g id="node16" class="node">
<title>15</title>
<path fill="none" stroke="#5692d8" stroke-width="2" d="M786.5,-252C786.5,-252 736.5,-252 736.5,-252 730.5,-252 724.5,-246 724.5,-240 724.5,-240 724.5,-228 724.5,-228 724.5,-222 730.5,-216 736.5,-216 736.5,-216 786.5,-216 786.5,-216 792.5,-216 798.5,-222 798.5,-228 798.5,-228 798.5,-240 798.5,-240 798.5,-246 792.5,-252 786.5,-252"/>
<text text-anchor="middle" x="761.5" y="-231.5" font-family="sans" font-size="10.00">deduplicate</text>
</g>
<!-- 15&#45;&gt;10 -->
<g id="edge21" class="edge">
<title>15&#45;&gt;10</title>
<path fill="none" stroke="grey" stroke-width="2" d="M741.12,-215.53C731.69,-206.09 721.49,-193.6 716.5,-180 710.98,-164.98 711.7,-159.26 716.5,-144 719.6,-134.15 725.25,-124.53 731.22,-116.25"/>
<polygon fill="grey" stroke="grey" stroke-width="2" points="734.13,-118.21 737.46,-108.15 728.59,-113.94 734.13,-118.21"/>
</g>
<!-- 15&#45;&gt;11 -->
<g id="edge23" class="edge">
<title>15&#45;&gt;11</title>
<path fill="none" stroke="grey" stroke-width="2" d="M779.31,-215.87C788.43,-206.16 798.96,-193.31 805.5,-180 815.08,-160.52 820.13,-136.38 822.76,-118.16"/>
<polygon fill="grey" stroke="grey" stroke-width="2" points="826.24,-118.56 824.05,-108.19 819.3,-117.66 826.24,-118.56"/>
</g>
<!-- 15&#45;&gt;12 -->
<g id="edge25" class="edge">
<title>15&#45;&gt;12</title>
<path fill="none" stroke="grey" stroke-width="2" d="M790.61,-215.88C806.9,-206.29 827.34,-194.27 844.62,-184.11"/>
<polygon fill="grey" stroke="grey" stroke-width="2" points="846.48,-187.07 853.32,-178.99 842.93,-181.04 846.48,-187.07"/>
</g>
<!-- 16 -->
<g id="node17" class="node">
<title>16</title>
<path fill="none" stroke="#a7d856" stroke-width="2" d="M785,-180C785,-180 738,-180 738,-180 732,-180 726,-174 726,-168 726,-168 726,-156 726,-156 726,-150 732,-144 738,-144 738,-144 785,-144 785,-144 791,-144 797,-150 797,-156 797,-156 797,-168 797,-168 797,-174 791,-180 785,-180"/>
<text text-anchor="middle" x="761.5" y="-159.5" font-family="sans" font-size="10.00">bam_index</text>
</g>
<!-- 15&#45;&gt;16 -->
<g id="edge29" class="edge">
<title>15&#45;&gt;16</title>
<path fill="none" stroke="grey" stroke-width="2" d="M761.5,-215.7C761.5,-207.98 761.5,-198.71 761.5,-190.11"/>
<polygon fill="grey" stroke="grey" stroke-width="2" points="765,-190.1 761.5,-180.1 758,-190.1 765,-190.1"/>
</g>
<!-- 16&#45;&gt;10 -->
<g id="edge22" class="edge">
<title>16&#45;&gt;10</title>
<path fill="none" stroke="grey" stroke-width="2" d="M759.52,-143.7C758.64,-135.98 757.58,-126.71 756.6,-118.11"/>
<polygon fill="grey" stroke="grey" stroke-width="2" points="760.07,-117.64 755.45,-108.1 753.11,-118.44 760.07,-117.64"/>
</g>
<!-- 16&#45;&gt;11 -->
<g id="edge24" class="edge">
<title>16&#45;&gt;11</title>
<path fill="none" stroke="grey" stroke-width="2" d="M777.32,-143.7C785.07,-135.22 794.54,-124.86 803.02,-115.58"/>
<polygon fill="grey" stroke="grey" stroke-width="2" points="805.7,-117.85 809.86,-108.1 800.53,-113.12 805.7,-117.85"/>
</g>
<!-- 17&#45;&gt;13 -->
<g id="edge26" class="edge">
<title>17&#45;&gt;13</title>
<path fill="none" stroke="grey" stroke-width="2" d="M247.5,-503.7C247.5,-495.98 247.5,-486.71 247.5,-478.11"/>
<polygon fill="grey" stroke="grey" stroke-width="2" points="251,-478.1 247.5,-468.1 244,-478.1 251,-478.1"/>
</g>
<!-- 22 -->
<g id="node23" class="node">
<title>22</title>
<path fill="none" stroke="#d85656" stroke-width="2" d="M623.5,-468C623.5,-468 593.5,-468 593.5,-468 587.5,-468 581.5,-462 581.5,-456 581.5,-456 581.5,-444 581.5,-444 581.5,-438 587.5,-432 593.5,-432 593.5,-432 623.5,-432 623.5,-432 629.5,-432 635.5,-438 635.5,-444 635.5,-444 635.5,-456 635.5,-456 635.5,-462 629.5,-468 623.5,-468"/>
<text text-anchor="middle" x="608.5" y="-447.5" font-family="sans" font-size="10.00">bwa</text>
</g>
<!-- 17&#45;&gt;22 -->
<g id="edge35" class="edge">
<title>17&#45;&gt;22</title>
<path fill="none" stroke="grey" stroke-width="2" d="M335.35,-503.97C410.84,-489.33 515.98,-468.94 571.21,-458.23"/>
<polygon fill="grey" stroke="grey" stroke-width="2" points="572.1,-461.62 581.25,-456.28 570.77,-454.75 572.1,-461.62"/>
</g>
<!-- 18 -->
<g id="node19" class="node">
<title>18</title>
<path fill="none" stroke="#d86e56" stroke-width="2" stroke-dasharray="5,2" d="M1246,-252C1246,-252 981,-252 981,-252 975,-252 969,-246 969,-240 969,-240 969,-228 969,-228 969,-222 975,-216 981,-216 981,-216 1246,-216 1246,-216 1252,-216 1258,-222 1258,-228 1258,-228 1258,-240 1258,-240 1258,-246 1252,-252 1246,-252"/>
<text text-anchor="middle" x="1113.5" y="-231.5" font-family="sans" font-size="10.00">ONT_Minimap2_Alignment_And_Processing_ONT_Reads</text>
</g>
<!-- 18&#45;&gt;14 -->
<g id="edge27" class="edge">
<title>18&#45;&gt;14</title>
<path fill="none" stroke="grey" stroke-width="2" d="M1114.24,-215.7C1114.57,-207.98 1114.97,-198.71 1115.34,-190.11"/>
<polygon fill="grey" stroke="grey" stroke-width="2" points="1118.84,-190.25 1115.77,-180.1 1111.84,-189.95 1118.84,-190.25"/>
</g>
<!-- 19 -->
<g id="node20" class="node">
<title>19</title>
<path fill="none" stroke="#b6d856" stroke-width="2" d="M686,-324C686,-324 633,-324 633,-324 627,-324 621,-318 621,-312 621,-312 621,-300 621,-300 621,-294 627,-288 633,-288 633,-288 686,-288 686,-288 692,-288 698,-294 698,-300 698,-300 698,-312 698,-312 698,-318 692,-324 686,-324"/>
<text text-anchor="middle" x="659.5" y="-303.5" font-family="sans" font-size="10.00">read_groups</text>
</g>
<!-- 19&#45;&gt;15 -->
<g id="edge28" class="edge">
<title>19&#45;&gt;15</title>
<path fill="none" stroke="grey" stroke-width="2" d="M684.45,-287.88C697.54,-278.89 713.76,-267.76 727.94,-258.03"/>
<polygon fill="grey" stroke="grey" stroke-width="2" points="730.19,-260.73 736.45,-252.19 726.23,-254.96 730.19,-260.73"/>
</g>
<!-- 20&#45;&gt;18 -->
<g id="edge31" class="edge">
<title>20&#45;&gt;18</title>
<path fill="none" stroke="grey" stroke-width="2" d="M1068.33,-287.7C1075.52,-279.3 1084.3,-269.07 1092.19,-259.86"/>
<polygon fill="grey" stroke="grey" stroke-width="2" points="1094.99,-261.97 1098.84,-252.1 1089.67,-257.42 1094.99,-261.97"/>
</g>
<!-- 21 -->
<g id="node22" class="node">
<title>21</title>
<path fill="none" stroke="#80d856" stroke-width="2" d="M654,-396C654,-396 613,-396 613,-396 607,-396 601,-390 601,-384 601,-384 601,-372 601,-372 601,-366 607,-360 613,-360 613,-360 654,-360 654,-360 660,-360 666,-366 666,-372 666,-372 666,-384 666,-384 666,-390 660,-396 654,-396"/>
<text text-anchor="middle" x="633.5" y="-375.5" font-family="sans" font-size="10.00">sam2bam</text>
</g>
<!-- 21&#45;&gt;19 -->
<g id="edge32" class="edge">
<title>21&#45;&gt;19</title>
<path fill="none" stroke="grey" stroke-width="2" d="M639.93,-359.7C642.86,-351.81 646.39,-342.3 649.64,-333.55"/>
<polygon fill="grey" stroke="grey" stroke-width="2" points="652.95,-334.7 653.15,-324.1 646.38,-332.26 652.95,-334.7"/>
</g>
<!-- 22&#45;&gt;21 -->
<g id="edge34" class="edge">
<title>22&#45;&gt;21</title>
<path fill="none" stroke="grey" stroke-width="2" d="M614.68,-431.7C617.5,-423.81 620.89,-414.3 624.02,-405.55"/>
<polygon fill="grey" stroke="grey" stroke-width="2" points="627.32,-406.7 627.39,-396.1 620.73,-404.34 627.32,-406.7"/>
</g>
<!-- 23 -->
<g id="node24" class="node">
<title>23</title>
<path fill="none" stroke="#56a9d8" stroke-width="2" d="M631,-540C631,-540 586,-540 586,-540 580,-540 574,-534 574,-528 574,-528 574,-516 574,-516 574,-510 580,-504 586,-504 586,-504 631,-504 631,-504 637,-504 643,-510 643,-516 643,-516 643,-528 643,-528 643,-534 637,-540 631,-540"/>
<text text-anchor="middle" x="608.5" y="-519.5" font-family="sans" font-size="10.00">bwa_index</text>
</g>
<!-- 23&#45;&gt;22 -->
<g id="edge36" class="edge">
<title>23&#45;&gt;22</title>
<path fill="none" stroke="grey" stroke-width="2" d="M608.5,-503.7C608.5,-495.98 608.5,-486.71 608.5,-478.11"/>
<polygon fill="grey" stroke="grey" stroke-width="2" points="612,-478.1 608.5,-468.1 605,-478.1 612,-478.1"/>
</g>
</g>
</svg>
