<?xml version="1.0" encoding="UTF-8" standalone="no"?>
<!DOCTYPE svg PUBLIC "-//W3C//DTD SVG 1.1//EN"
 "http://www.w3.org/Graphics/SVG/1.1/DTD/svg11.dtd">
<!-- Generated by graphviz version 2.42.3 (20191010.1750)
 -->
<!-- Title: snakemake_dag Pages: 1 -->
<svg width="870pt" height="404pt"
 viewBox="0.00 0.00 870.00 404.00" xmlns="http://www.w3.org/2000/svg" xmlns:xlink="http://www.w3.org/1999/xlink">
<g id="graph0" class="graph" transform="scale(1 1) rotate(0) translate(4 400)">
<title>snakemake_dag</title>
<polygon fill="white" stroke="transparent" points="-4,4 -4,-400 866,-400 866,4 -4,4"/>
<!-- 0 -->
<g id="node1" class="node">
<title>0</title>
<path fill="none" stroke="#d85656" stroke-width="2" d="M297,-36C297,-36 267,-36 267,-36 261,-36 255,-30 255,-24 255,-24 255,-12 255,-12 255,-6 261,0 267,0 267,0 297,0 297,0 303,0 309,-6 309,-12 309,-12 309,-24 309,-24 309,-30 303,-36 297,-36"/>
<text text-anchor="middle" x="282" y="-15.5" font-family="sans" font-size="10.00">all</text>
</g>
<!-- 1 -->
<g id="node2" class="node">
<title>1</title>
<path fill="none" stroke="#70d856" stroke-width="2" d="M204,-108C204,-108 12,-108 12,-108 6,-108 0,-102 0,-96 0,-96 0,-84 0,-84 0,-78 6,-72 12,-72 12,-72 204,-72 204,-72 210,-72 216,-78 216,-84 216,-84 216,-96 216,-96 216,-102 210,-108 204,-108"/>
<text text-anchor="middle" x="108" y="-93" font-family="sans" font-size="10.00">download_Nanopore_FQ_FromSRA_RunID</text>
<text text-anchor="middle" x="108" y="-82" font-family="sans" font-size="10.00">sampleID_WiNanopore: SRR11140747</text>
</g>
<!-- 1&#45;&gt;0 -->
<g id="edge1" class="edge">
<title>1&#45;&gt;0</title>
<path fill="none" stroke="grey" stroke-width="2" d="M150.57,-71.88C179.63,-60.18 217.75,-44.85 245.45,-33.7"/>
<polygon fill="grey" stroke="grey" stroke-width="2" points="246.81,-36.93 254.78,-29.95 244.19,-30.44 246.81,-36.93"/>
</g>
<!-- 2 -->
<g id="node3" class="node">
<title>2</title>
<path fill="none" stroke="#d88d56" stroke-width="2" d="M398.5,-396C398.5,-396 213.5,-396 213.5,-396 207.5,-396 201.5,-390 201.5,-384 201.5,-384 201.5,-372 201.5,-372 201.5,-366 207.5,-360 213.5,-360 213.5,-360 398.5,-360 398.5,-360 404.5,-360 410.5,-366 410.5,-372 410.5,-372 410.5,-384 410.5,-384 410.5,-390 404.5,-396 398.5,-396"/>
<text text-anchor="middle" x="306" y="-381" font-family="sans" font-size="10.00">download_Illumina_FQ_FromSRA_RunID</text>
<text text-anchor="middle" x="306" y="-370" font-family="sans" font-size="10.00">sampleID_WiIllumina: SRR11140748</text>
</g>
<!-- 2&#45;&gt;0 -->
<g id="edge2" class="edge">
<title>2&#45;&gt;0</title>
<path fill="none" stroke="grey" stroke-width="2" d="M292.85,-359.69C274.65,-333.95 244,-283.42 244,-235 244,-235 244,-235 244,-161 244,-119.63 259.23,-73.72 270.41,-45.61"/>
<polygon fill="grey" stroke="grey" stroke-width="2" points="273.76,-46.67 274.31,-36.09 267.28,-44.02 273.76,-46.67"/>
</g>
<!-- 7 -->
<g id="node8" class="node">
<title>7</title>
<path fill="none" stroke="#afd856" stroke-width="2" d="M470,-324C470,-324 300,-324 300,-324 294,-324 288,-318 288,-312 288,-312 288,-300 288,-300 288,-294 294,-288 300,-288 300,-288 470,-288 470,-288 476,-288 482,-294 482,-300 482,-300 482,-312 482,-312 482,-318 476,-324 470,-324"/>
<text text-anchor="middle" x="385" y="-303.5" font-family="sans" font-size="10.00">trimmomatic_Illumina_PE_Trimming</text>
</g>
<!-- 2&#45;&gt;7 -->
<g id="edge10" class="edge">
<title>2&#45;&gt;7</title>
<path fill="none" stroke="grey" stroke-width="2" d="M325.53,-359.7C335.38,-350.97 347.49,-340.24 358.2,-330.75"/>
<polygon fill="grey" stroke="grey" stroke-width="2" points="360.53,-333.36 365.7,-324.1 355.89,-328.12 360.53,-333.36"/>
</g>
<!-- 3 -->
<g id="node4" class="node">
<title>3</title>
<path fill="none" stroke="#56d8a9" stroke-width="2" d="M544,-180C544,-180 292,-180 292,-180 286,-180 280,-174 280,-168 280,-168 280,-156 280,-156 280,-150 286,-144 292,-144 292,-144 544,-144 544,-144 550,-144 556,-150 556,-156 556,-156 556,-168 556,-168 556,-174 550,-180 544,-180"/>
<text text-anchor="middle" x="418" y="-159.5" font-family="sans" font-size="10.00">rename_SPAdesAssembly_WithBioAWK_And_IndexFA</text>
</g>
<!-- 3&#45;&gt;0 -->
<g id="edge3" class="edge">
<title>3&#45;&gt;0</title>
<path fill="none" stroke="grey" stroke-width="2" d="M352.84,-143.93C333.62,-135.93 314.22,-124.41 301,-108 287.1,-90.74 282.73,-65.68 281.62,-46.54"/>
<polygon fill="grey" stroke="grey" stroke-width="2" points="285.11,-46.22 281.29,-36.34 278.11,-46.45 285.11,-46.22"/>
</g>
<!-- 4 -->
<g id="node5" class="node">
<title>4</title>
<path fill="none" stroke="#5692d8" stroke-width="2" d="M532,-108C532,-108 322,-108 322,-108 316,-108 310,-102 310,-96 310,-96 310,-84 310,-84 310,-78 316,-72 322,-72 322,-72 532,-72 532,-72 538,-72 544,-78 544,-84 544,-84 544,-96 544,-96 544,-102 538,-108 532,-108"/>
<text text-anchor="middle" x="427" y="-87.5" font-family="sans" font-size="10.00">Minimap2_Ill_SPAdes_Assembly_AlignTo_Ref</text>
</g>
<!-- 3&#45;&gt;4 -->
<g id="edge7" class="edge">
<title>3&#45;&gt;4</title>
<path fill="none" stroke="grey" stroke-width="2" d="M420.22,-143.7C421.22,-135.98 422.41,-126.71 423.51,-118.11"/>
<polygon fill="grey" stroke="grey" stroke-width="2" points="427,-118.47 424.8,-108.1 420.05,-117.58 427,-118.47"/>
</g>
<!-- 5 -->
<g id="node6" class="node">
<title>5</title>
<path fill="none" stroke="#56d873" stroke-width="2" d="M850,-108C850,-108 574,-108 574,-108 568,-108 562,-102 562,-96 562,-96 562,-84 562,-84 562,-78 568,-72 574,-72 574,-72 850,-72 850,-72 856,-72 862,-78 862,-84 862,-84 862,-96 862,-96 862,-102 856,-108 850,-108"/>
<text text-anchor="middle" x="712" y="-87.5" font-family="sans" font-size="10.00">NucDiff_Ill_SPAdes_Assembly_AlignTo_Ref_WithVCFoutput</text>
</g>
<!-- 3&#45;&gt;5 -->
<g id="edge8" class="edge">
<title>3&#45;&gt;5</title>
<path fill="none" stroke="grey" stroke-width="2" d="M489.54,-143.97C532.13,-133.83 586.31,-120.93 630.54,-110.4"/>
<polygon fill="grey" stroke="grey" stroke-width="2" points="631.47,-113.77 640.39,-108.05 629.85,-106.96 631.47,-113.77"/>
</g>
<!-- 4&#45;&gt;0 -->
<g id="edge4" class="edge">
<title>4&#45;&gt;0</title>
<path fill="none" stroke="grey" stroke-width="2" d="M391.53,-71.88C369.37,-61.18 340.91,-47.44 318.56,-36.65"/>
<polygon fill="grey" stroke="grey" stroke-width="2" points="319.91,-33.42 309.38,-32.22 316.87,-39.72 319.91,-33.42"/>
</g>
<!-- 5&#45;&gt;0 -->
<g id="edge5" class="edge">
<title>5&#45;&gt;0</title>
<path fill="none" stroke="grey" stroke-width="2" d="M607.36,-71.97C514.11,-56.78 382.85,-35.42 319.34,-25.08"/>
<polygon fill="grey" stroke="grey" stroke-width="2" points="319.81,-21.61 309.38,-23.46 318.68,-28.52 319.81,-21.61"/>
</g>
<!-- 6 -->
<g id="node7" class="node">
<title>6</title>
<path fill="none" stroke="#56c9d8" stroke-width="2" d="M500.5,-252C500.5,-252 301.5,-252 301.5,-252 295.5,-252 289.5,-246 289.5,-240 289.5,-240 289.5,-228 289.5,-228 289.5,-222 295.5,-216 301.5,-216 301.5,-216 500.5,-216 500.5,-216 506.5,-216 512.5,-222 512.5,-228 512.5,-228 512.5,-240 512.5,-240 512.5,-246 506.5,-252 500.5,-252"/>
<text text-anchor="middle" x="401" y="-231.5" font-family="sans" font-size="10.00">unicycler_SPAdes_Assemble_IlluminaWGS</text>
</g>
<!-- 6&#45;&gt;3 -->
<g id="edge6" class="edge">
<title>6&#45;&gt;3</title>
<path fill="none" stroke="grey" stroke-width="2" d="M405.2,-215.7C407.1,-207.9 409.38,-198.51 411.48,-189.83"/>
<polygon fill="grey" stroke="grey" stroke-width="2" points="414.89,-190.65 413.85,-180.1 408.08,-189 414.89,-190.65"/>
</g>
<!-- 7&#45;&gt;6 -->
<g id="edge9" class="edge">
<title>7&#45;&gt;6</title>
<path fill="none" stroke="grey" stroke-width="2" d="M388.96,-287.7C390.72,-279.98 392.84,-270.71 394.8,-262.11"/>
<polygon fill="grey" stroke="grey" stroke-width="2" points="398.27,-262.63 397.09,-252.1 391.45,-261.07 398.27,-262.63"/>
</g>
</g>
</svg>
