<?xml version="1.0" encoding="UTF-8" standalone="no"?>
<!DOCTYPE svg PUBLIC "-//W3C//DTD SVG 1.1//EN"
 "http://www.w3.org/Graphics/SVG/1.1/DTD/svg11.dtd">
<!-- Generated by graphviz version 2.42.3 (20191010.1750)
 -->
<!-- Title: snakemake_dag Pages: 1 -->
<svg width="7530pt" height="404pt"
 viewBox="0.00 0.00 7530.00 404.00" xmlns="http://www.w3.org/2000/svg" xmlns:xlink="http://www.w3.org/1999/xlink">
<g id="graph0" class="graph" transform="scale(1 1) rotate(0) translate(4 400)">
<title>snakemake_dag</title>
<polygon fill="white" stroke="transparent" points="-4,4 -4,-400 7526,-400 7526,4 -4,4"/>
<!-- 0 -->
<g id="node1" class="node">
<title>0</title>
<path fill="none" stroke="#97d856" stroke-width="2" d="M3760,-36C3760,-36 3730,-36 3730,-36 3724,-36 3718,-30 3718,-24 3718,-24 3718,-12 3718,-12 3718,-6 3724,0 3730,0 3730,0 3760,0 3760,0 3766,0 3772,-6 3772,-12 3772,-12 3772,-24 3772,-24 3772,-30 3766,-36 3760,-36"/>
<text text-anchor="middle" x="3745" y="-15.5" font-family="sans" font-size="10.00">all</text>
</g>
<!-- 1 -->
<g id="node2" class="node">
<title>1</title>
<path fill="none" stroke="#d89556" stroke-width="2" d="M190,-108C190,-108 12,-108 12,-108 6,-108 0,-102 0,-96 0,-96 0,-84 0,-84 0,-78 6,-72 12,-72 12,-72 190,-72 190,-72 196,-72 202,-78 202,-84 202,-84 202,-96 202,-96 202,-102 196,-108 190,-108"/>
<text text-anchor="middle" x="101" y="-93" font-family="sans" font-size="10.00">samtools_faidx_SPAdesAssembly</text>
<text text-anchor="middle" x="101" y="-82" font-family="sans" font-size="10.00">sampleID_WiNanopore: SRR11140744</text>
</g>
<!-- 1&#45;&gt;0 -->
<g id="edge1" class="edge">
<title>1&#45;&gt;0</title>
<path fill="none" stroke="grey" stroke-width="2" d="M202.23,-72.82C205.18,-72.52 208.11,-72.24 211,-72 577.22,-41.1 3353.12,-21.62 3707.76,-19.24"/>
<polygon fill="grey" stroke="grey" stroke-width="2" points="3707.79,-22.74 3717.77,-19.18 3707.74,-15.75 3707.79,-22.74"/>
</g>
<!-- 2 -->
<g id="node3" class="node">
<title>2</title>
<path fill="none" stroke="#d89556" stroke-width="2" d="M944,-108C944,-108 766,-108 766,-108 760,-108 754,-102 754,-96 754,-96 754,-84 754,-84 754,-78 760,-72 766,-72 766,-72 944,-72 944,-72 950,-72 956,-78 956,-84 956,-84 956,-96 956,-96 956,-102 950,-108 944,-108"/>
<text text-anchor="middle" x="855" y="-93" font-family="sans" font-size="10.00">samtools_faidx_SPAdesAssembly</text>
<text text-anchor="middle" x="855" y="-82" font-family="sans" font-size="10.00">sampleID_WiNanopore: SRR11140746</text>
</g>
<!-- 2&#45;&gt;0 -->
<g id="edge2" class="edge">
<title>2&#45;&gt;0</title>
<path fill="none" stroke="grey" stroke-width="2" d="M956.23,-72.83C959.19,-72.53 962.11,-72.25 965,-72 1532.72,-22.94 3417.69,-19.29 3707.47,-19.02"/>
<polygon fill="grey" stroke="grey" stroke-width="2" points="3707.85,-22.52 3717.85,-19.01 3707.85,-15.52 3707.85,-22.52"/>
</g>
<!-- 3 -->
<g id="node4" class="node">
<title>3</title>
<path fill="none" stroke="#d89556" stroke-width="2" d="M1698,-108C1698,-108 1520,-108 1520,-108 1514,-108 1508,-102 1508,-96 1508,-96 1508,-84 1508,-84 1508,-78 1514,-72 1520,-72 1520,-72 1698,-72 1698,-72 1704,-72 1710,-78 1710,-84 1710,-84 1710,-96 1710,-96 1710,-102 1704,-108 1698,-108"/>
<text text-anchor="middle" x="1609" y="-93" font-family="sans" font-size="10.00">samtools_faidx_SPAdesAssembly</text>
<text text-anchor="middle" x="1609" y="-82" font-family="sans" font-size="10.00">sampleID_WiNanopore: SRR11140748</text>
</g>
<!-- 3&#45;&gt;0 -->
<g id="edge3" class="edge">
<title>3&#45;&gt;0</title>
<path fill="none" stroke="grey" stroke-width="2" d="M1710.24,-72.86C1713.19,-72.55 1716.11,-72.26 1719,-72 2126.68,-35.32 3466.82,-21.53 3707.73,-19.33"/>
<polygon fill="grey" stroke="grey" stroke-width="2" points="3707.77,-22.83 3717.74,-19.24 3707.71,-15.83 3707.77,-22.83"/>
</g>
<!-- 4 -->
<g id="node5" class="node">
<title>4</title>
<path fill="none" stroke="#d89556" stroke-width="2" d="M2452,-108C2452,-108 2274,-108 2274,-108 2268,-108 2262,-102 2262,-96 2262,-96 2262,-84 2262,-84 2262,-78 2268,-72 2274,-72 2274,-72 2452,-72 2452,-72 2458,-72 2464,-78 2464,-84 2464,-84 2464,-96 2464,-96 2464,-102 2458,-108 2452,-108"/>
<text text-anchor="middle" x="2363" y="-93" font-family="sans" font-size="10.00">samtools_faidx_SPAdesAssembly</text>
<text text-anchor="middle" x="2363" y="-82" font-family="sans" font-size="10.00">sampleID_WiNanopore: SRR11140750</text>
</g>
<!-- 4&#45;&gt;0 -->
<g id="edge4" class="edge">
<title>4&#45;&gt;0</title>
<path fill="none" stroke="grey" stroke-width="2" d="M2464.24,-72.92C2467.19,-72.59 2470.12,-72.28 2473,-72 2959.03,-24.47 3553.61,-19.5 3707.32,-19.04"/>
<polygon fill="grey" stroke="grey" stroke-width="2" points="3707.63,-22.53 3717.62,-19.01 3707.61,-15.53 3707.63,-22.53"/>
</g>
<!-- 5 -->
<g id="node6" class="node">
<title>5</title>
<path fill="none" stroke="#d89556" stroke-width="2" d="M3206,-108C3206,-108 3028,-108 3028,-108 3022,-108 3016,-102 3016,-96 3016,-96 3016,-84 3016,-84 3016,-78 3022,-72 3028,-72 3028,-72 3206,-72 3206,-72 3212,-72 3218,-78 3218,-84 3218,-84 3218,-96 3218,-96 3218,-102 3212,-108 3206,-108"/>
<text text-anchor="middle" x="3117" y="-93" font-family="sans" font-size="10.00">samtools_faidx_SPAdesAssembly</text>
<text text-anchor="middle" x="3117" y="-82" font-family="sans" font-size="10.00">sampleID_WiNanopore: SRR11514749</text>
</g>
<!-- 5&#45;&gt;0 -->
<g id="edge5" class="edge">
<title>5&#45;&gt;0</title>
<path fill="none" stroke="grey" stroke-width="2" d="M3218.27,-73.15C3221.21,-72.75 3224.12,-72.37 3227,-72 3406.71,-48.93 3622.54,-29.5 3707.77,-22.15"/>
<polygon fill="grey" stroke="grey" stroke-width="2" points="3708.32,-25.61 3717.98,-21.27 3707.72,-18.64 3708.32,-25.61"/>
</g>
<!-- 6 -->
<g id="node7" class="node">
<title>6</title>
<path fill="none" stroke="#d89556" stroke-width="2" d="M3960,-108C3960,-108 3782,-108 3782,-108 3776,-108 3770,-102 3770,-96 3770,-96 3770,-84 3770,-84 3770,-78 3776,-72 3782,-72 3782,-72 3960,-72 3960,-72 3966,-72 3972,-78 3972,-84 3972,-84 3972,-96 3972,-96 3972,-102 3966,-108 3960,-108"/>
<text text-anchor="middle" x="3871" y="-93" font-family="sans" font-size="10.00">samtools_faidx_SPAdesAssembly</text>
<text text-anchor="middle" x="3871" y="-82" font-family="sans" font-size="10.00">sampleID_WiNanopore: SRR11514750</text>
</g>
<!-- 6&#45;&gt;0 -->
<g id="edge6" class="edge">
<title>6&#45;&gt;0</title>
<path fill="none" stroke="grey" stroke-width="2" d="M3840.18,-71.88C3822.27,-61.93 3799.62,-49.35 3780.91,-38.95"/>
<polygon fill="grey" stroke="grey" stroke-width="2" points="3782.52,-35.84 3772.08,-34.05 3779.12,-41.96 3782.52,-35.84"/>
</g>
<!-- 7 -->
<g id="node8" class="node">
<title>7</title>
<path fill="none" stroke="#d89556" stroke-width="2" d="M4714,-108C4714,-108 4536,-108 4536,-108 4530,-108 4524,-102 4524,-96 4524,-96 4524,-84 4524,-84 4524,-78 4530,-72 4536,-72 4536,-72 4714,-72 4714,-72 4720,-72 4726,-78 4726,-84 4726,-84 4726,-96 4726,-96 4726,-102 4720,-108 4714,-108"/>
<text text-anchor="middle" x="4625" y="-93" font-family="sans" font-size="10.00">samtools_faidx_SPAdesAssembly</text>
<text text-anchor="middle" x="4625" y="-82" font-family="sans" font-size="10.00">sampleID_WiNanopore: SRR11542243</text>
</g>
<!-- 7&#45;&gt;0 -->
<g id="edge7" class="edge">
<title>7&#45;&gt;0</title>
<path fill="none" stroke="grey" stroke-width="2" d="M4523.75,-73.02C4520.8,-72.66 4517.88,-72.32 4515,-72 4234.08,-40.68 3893.3,-24.99 3782.05,-20.44"/>
<polygon fill="grey" stroke="grey" stroke-width="2" points="3782.15,-16.94 3772.01,-20.03 3781.86,-23.93 3782.15,-16.94"/>
</g>
<!-- 8 -->
<g id="node9" class="node">
<title>8</title>
<path fill="none" stroke="#d89556" stroke-width="2" d="M5468,-108C5468,-108 5290,-108 5290,-108 5284,-108 5278,-102 5278,-96 5278,-96 5278,-84 5278,-84 5278,-78 5284,-72 5290,-72 5290,-72 5468,-72 5468,-72 5474,-72 5480,-78 5480,-84 5480,-84 5480,-96 5480,-96 5480,-102 5474,-108 5468,-108"/>
<text text-anchor="middle" x="5379" y="-93" font-family="sans" font-size="10.00">samtools_faidx_SPAdesAssembly</text>
<text text-anchor="middle" x="5379" y="-82" font-family="sans" font-size="10.00">sampleID_WiNanopore: SRR11542244</text>
</g>
<!-- 8&#45;&gt;0 -->
<g id="edge8" class="edge">
<title>8&#45;&gt;0</title>
<path fill="none" stroke="grey" stroke-width="2" d="M5277.76,-72.89C5274.81,-72.57 5271.89,-72.27 5269,-72 4678.09,-16.26 3953.35,-17.5 3782.37,-18.67"/>
<polygon fill="grey" stroke="grey" stroke-width="2" points="3782.11,-15.17 3772.14,-18.74 3782.16,-22.17 3782.11,-15.17"/>
</g>
<!-- 9 -->
<g id="node10" class="node">
<title>9</title>
<path fill="none" stroke="#d89556" stroke-width="2" d="M6222,-108C6222,-108 6044,-108 6044,-108 6038,-108 6032,-102 6032,-96 6032,-96 6032,-84 6032,-84 6032,-78 6038,-72 6044,-72 6044,-72 6222,-72 6222,-72 6228,-72 6234,-78 6234,-84 6234,-84 6234,-96 6234,-96 6234,-102 6228,-108 6222,-108"/>
<text text-anchor="middle" x="6133" y="-93" font-family="sans" font-size="10.00">samtools_faidx_SPAdesAssembly</text>
<text text-anchor="middle" x="6133" y="-82" font-family="sans" font-size="10.00">sampleID_WiNanopore: SRR11476445</text>
</g>
<!-- 9&#45;&gt;0 -->
<g id="edge9" class="edge">
<title>9&#45;&gt;0</title>
<path fill="none" stroke="grey" stroke-width="2" d="M6031.77,-72.85C6028.81,-72.54 6025.89,-72.26 6023,-72 5562.17,-31.2 4041.89,-20.71 3782.73,-19.2"/>
<polygon fill="grey" stroke="grey" stroke-width="2" points="3782.37,-15.7 3772.35,-19.15 3782.33,-22.7 3782.37,-15.7"/>
</g>
<!-- 10 -->
<g id="node11" class="node">
<title>10</title>
<path fill="none" stroke="#d89556" stroke-width="2" d="M6976,-108C6976,-108 6798,-108 6798,-108 6792,-108 6786,-102 6786,-96 6786,-96 6786,-84 6786,-84 6786,-78 6792,-72 6798,-72 6798,-72 6976,-72 6976,-72 6982,-72 6988,-78 6988,-84 6988,-84 6988,-96 6988,-96 6988,-102 6982,-108 6976,-108"/>
<text text-anchor="middle" x="6887" y="-93" font-family="sans" font-size="10.00">samtools_faidx_SPAdesAssembly</text>
<text text-anchor="middle" x="6887" y="-82" font-family="sans" font-size="10.00">sampleID_WiNanopore: SRR11476446</text>
</g>
<!-- 10&#45;&gt;0 -->
<g id="edge10" class="edge">
<title>10&#45;&gt;0</title>
<path fill="none" stroke="grey" stroke-width="2" d="M6785.77,-72.83C6782.82,-72.52 6779.89,-72.25 6777,-72 6155.24,-18.77 4084.98,-18.68 3782.11,-18.95"/>
<polygon fill="grey" stroke="grey" stroke-width="2" points="3782.08,-15.45 3772.08,-18.96 3782.09,-22.45 3782.08,-15.45"/>
</g>
<!-- 11 -->
<g id="node12" class="node">
<title>11</title>
<path fill="none" stroke="#569ad8" stroke-width="2" d="M442,-108C442,-108 232,-108 232,-108 226,-108 220,-102 220,-96 220,-96 220,-84 220,-84 220,-78 226,-72 232,-72 232,-72 442,-72 442,-72 448,-72 454,-78 454,-84 454,-84 454,-96 454,-96 454,-102 448,-108 442,-108"/>
<text text-anchor="middle" x="337" y="-87.5" font-family="sans" font-size="10.00">Minimap2_Ill_SPAdes_Assembly_AlignTo_Ref</text>
</g>
<!-- 11&#45;&gt;0 -->
<g id="edge11" class="edge">
<title>11&#45;&gt;0</title>
<path fill="none" stroke="grey" stroke-width="2" d="M454.32,-72.71C457.24,-72.45 460.14,-72.22 463,-72 1138.66,-21.14 3390.98,-19.04 3707.84,-18.99"/>
<polygon fill="grey" stroke="grey" stroke-width="2" points="3707.88,-22.49 3717.88,-18.99 3707.88,-15.49 3707.88,-22.49"/>
</g>
<!-- 12 -->
<g id="node13" class="node">
<title>12</title>
<path fill="none" stroke="#569ad8" stroke-width="2" d="M1196,-108C1196,-108 986,-108 986,-108 980,-108 974,-102 974,-96 974,-96 974,-84 974,-84 974,-78 980,-72 986,-72 986,-72 1196,-72 1196,-72 1202,-72 1208,-78 1208,-84 1208,-84 1208,-96 1208,-96 1208,-102 1202,-108 1196,-108"/>
<text text-anchor="middle" x="1091" y="-87.5" font-family="sans" font-size="10.00">Minimap2_Ill_SPAdes_Assembly_AlignTo_Ref</text>
</g>
<!-- 12&#45;&gt;0 -->
<g id="edge12" class="edge">
<title>12&#45;&gt;0</title>
<path fill="none" stroke="grey" stroke-width="2" d="M1208.33,-72.73C1211.24,-72.47 1214.14,-72.22 1217,-72 1731.5,-32.03 3433.21,-20.77 3707.52,-19.2"/>
<polygon fill="grey" stroke="grey" stroke-width="2" points="3707.76,-22.7 3717.74,-19.14 3707.73,-15.7 3707.76,-22.7"/>
</g>
<!-- 13 -->
<g id="node14" class="node">
<title>13</title>
<path fill="none" stroke="#569ad8" stroke-width="2" d="M1950,-108C1950,-108 1740,-108 1740,-108 1734,-108 1728,-102 1728,-96 1728,-96 1728,-84 1728,-84 1728,-78 1734,-72 1740,-72 1740,-72 1950,-72 1950,-72 1956,-72 1962,-78 1962,-84 1962,-84 1962,-96 1962,-96 1962,-102 1956,-108 1950,-108"/>
<text text-anchor="middle" x="1845" y="-87.5" font-family="sans" font-size="10.00">Minimap2_Ill_SPAdes_Assembly_AlignTo_Ref</text>
</g>
<!-- 13&#45;&gt;0 -->
<g id="edge13" class="edge">
<title>13&#45;&gt;0</title>
<path fill="none" stroke="grey" stroke-width="2" d="M1962.33,-72.76C1965.25,-72.49 1968.14,-72.24 1971,-72 2666.87,-14.82 3520.77,-17.34 3707.72,-18.67"/>
<polygon fill="grey" stroke="grey" stroke-width="2" points="3707.82,-22.17 3717.85,-18.75 3707.87,-15.17 3707.82,-22.17"/>
</g>
<!-- 14 -->
<g id="node15" class="node">
<title>14</title>
<path fill="none" stroke="#569ad8" stroke-width="2" d="M2704,-108C2704,-108 2494,-108 2494,-108 2488,-108 2482,-102 2482,-96 2482,-96 2482,-84 2482,-84 2482,-78 2488,-72 2494,-72 2494,-72 2704,-72 2704,-72 2710,-72 2716,-78 2716,-84 2716,-84 2716,-96 2716,-96 2716,-102 2710,-108 2704,-108"/>
<text text-anchor="middle" x="2599" y="-87.5" font-family="sans" font-size="10.00">Minimap2_Ill_SPAdes_Assembly_AlignTo_Ref</text>
</g>
<!-- 14&#45;&gt;0 -->
<g id="edge14" class="edge">
<title>14&#45;&gt;0</title>
<path fill="none" stroke="grey" stroke-width="2" d="M2716.34,-72.85C2719.25,-72.55 2722.14,-72.27 2725,-72 3107.91,-36.28 3574.1,-23.04 3707.64,-19.83"/>
<polygon fill="grey" stroke="grey" stroke-width="2" points="3707.84,-23.33 3717.75,-19.59 3707.67,-16.33 3707.84,-23.33"/>
</g>
<!-- 15 -->
<g id="node16" class="node">
<title>15</title>
<path fill="none" stroke="#569ad8" stroke-width="2" d="M3458,-108C3458,-108 3248,-108 3248,-108 3242,-108 3236,-102 3236,-96 3236,-96 3236,-84 3236,-84 3236,-78 3242,-72 3248,-72 3248,-72 3458,-72 3458,-72 3464,-72 3470,-78 3470,-84 3470,-84 3470,-96 3470,-96 3470,-102 3464,-108 3458,-108"/>
<text text-anchor="middle" x="3353" y="-87.5" font-family="sans" font-size="10.00">Minimap2_Ill_SPAdes_Assembly_AlignTo_Ref</text>
</g>
<!-- 15&#45;&gt;0 -->
<g id="edge15" class="edge">
<title>15&#45;&gt;0</title>
<path fill="none" stroke="grey" stroke-width="2" d="M3448.39,-71.97C3531.98,-57.04 3649.07,-36.13 3708.01,-25.6"/>
<polygon fill="grey" stroke="grey" stroke-width="2" points="3708.75,-29.03 3717.98,-23.83 3707.52,-22.14 3708.75,-29.03"/>
</g>
<!-- 16 -->
<g id="node17" class="node">
<title>16</title>
<path fill="none" stroke="#569ad8" stroke-width="2" d="M4212,-108C4212,-108 4002,-108 4002,-108 3996,-108 3990,-102 3990,-96 3990,-96 3990,-84 3990,-84 3990,-78 3996,-72 4002,-72 4002,-72 4212,-72 4212,-72 4218,-72 4224,-78 4224,-84 4224,-84 4224,-96 4224,-96 4224,-102 4218,-108 4212,-108"/>
<text text-anchor="middle" x="4107" y="-87.5" font-family="sans" font-size="10.00">Minimap2_Ill_SPAdes_Assembly_AlignTo_Ref</text>
</g>
<!-- 16&#45;&gt;0 -->
<g id="edge16" class="edge">
<title>16&#45;&gt;0</title>
<path fill="none" stroke="grey" stroke-width="2" d="M4018.91,-71.97C3943.21,-57.33 3837.77,-36.94 3782.39,-26.23"/>
<polygon fill="grey" stroke="grey" stroke-width="2" points="3782.81,-22.75 3772.33,-24.28 3781.48,-29.62 3782.81,-22.75"/>
</g>
<!-- 17 -->
<g id="node18" class="node">
<title>17</title>
<path fill="none" stroke="#569ad8" stroke-width="2" d="M4966,-108C4966,-108 4756,-108 4756,-108 4750,-108 4744,-102 4744,-96 4744,-96 4744,-84 4744,-84 4744,-78 4750,-72 4756,-72 4756,-72 4966,-72 4966,-72 4972,-72 4978,-78 4978,-84 4978,-84 4978,-96 4978,-96 4978,-102 4972,-108 4966,-108"/>
<text text-anchor="middle" x="4861" y="-87.5" font-family="sans" font-size="10.00">Minimap2_Ill_SPAdes_Assembly_AlignTo_Ref</text>
</g>
<!-- 17&#45;&gt;0 -->
<g id="edge17" class="edge">
<title>17&#45;&gt;0</title>
<path fill="none" stroke="grey" stroke-width="2" d="M4743.66,-72.85C4740.75,-72.55 4737.86,-72.27 4735,-72 4364.56,-37.15 3913.81,-23.36 3782.53,-19.92"/>
<polygon fill="grey" stroke="grey" stroke-width="2" points="3782.31,-16.41 3772.23,-19.65 3782.13,-23.41 3782.31,-16.41"/>
</g>
<!-- 18 -->
<g id="node19" class="node">
<title>18</title>
<path fill="none" stroke="#569ad8" stroke-width="2" d="M5720,-108C5720,-108 5510,-108 5510,-108 5504,-108 5498,-102 5498,-96 5498,-96 5498,-84 5498,-84 5498,-78 5504,-72 5510,-72 5510,-72 5720,-72 5720,-72 5726,-72 5732,-78 5732,-84 5732,-84 5732,-96 5732,-96 5732,-102 5726,-108 5720,-108"/>
<text text-anchor="middle" x="5615" y="-87.5" font-family="sans" font-size="10.00">Minimap2_Ill_SPAdes_Assembly_AlignTo_Ref</text>
</g>
<!-- 18&#45;&gt;0 -->
<g id="edge18" class="edge">
<title>18&#45;&gt;0</title>
<path fill="none" stroke="grey" stroke-width="2" d="M5497.67,-72.76C5494.75,-72.49 5491.86,-72.24 5489,-72 4805.65,-15.67 3967.25,-17.52 3782.25,-18.7"/>
<polygon fill="grey" stroke="grey" stroke-width="2" points="3782.2,-15.2 3772.22,-18.77 3782.24,-22.2 3782.2,-15.2"/>
</g>
<!-- 19 -->
<g id="node20" class="node">
<title>19</title>
<path fill="none" stroke="#569ad8" stroke-width="2" d="M6474,-108C6474,-108 6264,-108 6264,-108 6258,-108 6252,-102 6252,-96 6252,-96 6252,-84 6252,-84 6252,-78 6258,-72 6264,-72 6264,-72 6474,-72 6474,-72 6480,-72 6486,-78 6486,-84 6486,-84 6486,-96 6486,-96 6486,-102 6480,-108 6474,-108"/>
<text text-anchor="middle" x="6369" y="-87.5" font-family="sans" font-size="10.00">Minimap2_Ill_SPAdes_Assembly_AlignTo_Ref</text>
</g>
<!-- 19&#45;&gt;0 -->
<g id="edge19" class="edge">
<title>19&#45;&gt;0</title>
<path fill="none" stroke="grey" stroke-width="2" d="M6251.67,-72.73C6248.76,-72.47 6245.86,-72.22 6243,-72 5734.88,-32.46 4054.86,-20.85 3782.46,-19.21"/>
<polygon fill="grey" stroke="grey" stroke-width="2" points="3782.33,-15.71 3772.3,-19.15 3782.28,-22.71 3782.33,-15.71"/>
</g>
<!-- 20 -->
<g id="node21" class="node">
<title>20</title>
<path fill="none" stroke="#569ad8" stroke-width="2" d="M7228,-108C7228,-108 7018,-108 7018,-108 7012,-108 7006,-102 7006,-96 7006,-96 7006,-84 7006,-84 7006,-78 7012,-72 7018,-72 7018,-72 7228,-72 7228,-72 7234,-72 7240,-78 7240,-84 7240,-84 7240,-96 7240,-96 7240,-102 7234,-108 7228,-108"/>
<text text-anchor="middle" x="7123" y="-87.5" font-family="sans" font-size="10.00">Minimap2_Ill_SPAdes_Assembly_AlignTo_Ref</text>
</g>
<!-- 20&#45;&gt;0 -->
<g id="edge20" class="edge">
<title>20&#45;&gt;0</title>
<path fill="none" stroke="grey" stroke-width="2" d="M7005.68,-72.71C7002.76,-72.45 6999.86,-72.22 6997,-72 6327.87,-21.58 4098.1,-19.1 3782.32,-19"/>
<polygon fill="grey" stroke="grey" stroke-width="2" points="3782.3,-15.5 3772.3,-19 3782.3,-22.5 3782.3,-15.5"/>
</g>
<!-- 21 -->
<g id="node22" class="node">
<title>21</title>
<path fill="none" stroke="#56d8d8" stroke-width="2" d="M724,-108C724,-108 484,-108 484,-108 478,-108 472,-102 472,-96 472,-96 472,-84 472,-84 472,-78 478,-72 484,-72 484,-72 724,-72 724,-72 730,-72 736,-78 736,-84 736,-84 736,-96 736,-96 736,-102 730,-108 724,-108"/>
<text text-anchor="middle" x="604" y="-87.5" font-family="sans" font-size="10.00">NucDiff_Analysis_G3_PP_vs_H37rv_WithVCFoutput</text>
</g>
<!-- 21&#45;&gt;0 -->
<g id="edge21" class="edge">
<title>21&#45;&gt;0</title>
<path fill="none" stroke="grey" stroke-width="2" d="M736.06,-72.66C739.06,-72.43 742.05,-72.2 745,-72 1360.36,-29.58 3404.57,-20.29 3707.38,-19.13"/>
<polygon fill="grey" stroke="grey" stroke-width="2" points="3707.81,-22.63 3717.8,-19.09 3707.79,-15.63 3707.81,-22.63"/>
</g>
<!-- 22 -->
<g id="node23" class="node">
<title>22</title>
<path fill="none" stroke="#56d8d8" stroke-width="2" d="M1478,-108C1478,-108 1238,-108 1238,-108 1232,-108 1226,-102 1226,-96 1226,-96 1226,-84 1226,-84 1226,-78 1232,-72 1238,-72 1238,-72 1478,-72 1478,-72 1484,-72 1490,-78 1490,-84 1490,-84 1490,-96 1490,-96 1490,-102 1484,-108 1478,-108"/>
<text text-anchor="middle" x="1358" y="-87.5" font-family="sans" font-size="10.00">NucDiff_Analysis_G3_PP_vs_H37rv_WithVCFoutput</text>
</g>
<!-- 22&#45;&gt;0 -->
<g id="edge22" class="edge">
<title>22&#45;&gt;0</title>
<path fill="none" stroke="grey" stroke-width="2" d="M1490.06,-72.69C1493.06,-72.44 1496.05,-72.21 1499,-72 1953.72,-39.3 3450.81,-22.13 3707.41,-19.39"/>
<polygon fill="grey" stroke="grey" stroke-width="2" points="3707.73,-22.89 3717.69,-19.28 3707.66,-15.89 3707.73,-22.89"/>
</g>
<!-- 23 -->
<g id="node24" class="node">
<title>23</title>
<path fill="none" stroke="#56d8d8" stroke-width="2" d="M2232,-108C2232,-108 1992,-108 1992,-108 1986,-108 1980,-102 1980,-96 1980,-96 1980,-84 1980,-84 1980,-78 1986,-72 1992,-72 1992,-72 2232,-72 2232,-72 2238,-72 2244,-78 2244,-84 2244,-84 2244,-96 2244,-96 2244,-102 2238,-108 2232,-108"/>
<text text-anchor="middle" x="2112" y="-87.5" font-family="sans" font-size="10.00">NucDiff_Analysis_G3_PP_vs_H37rv_WithVCFoutput</text>
</g>
<!-- 23&#45;&gt;0 -->
<g id="edge23" class="edge">
<title>23&#45;&gt;0</title>
<path fill="none" stroke="grey" stroke-width="2" d="M2244.06,-72.73C2247.07,-72.48 2250.05,-72.23 2253,-72 2831.7,-26.92 3539.69,-20.15 3707.9,-19.16"/>
<polygon fill="grey" stroke="grey" stroke-width="2" points="3708,-22.66 3717.98,-19.11 3707.96,-15.66 3708,-22.66"/>
</g>
<!-- 24 -->
<g id="node25" class="node">
<title>24</title>
<path fill="none" stroke="#56d8d8" stroke-width="2" d="M2986,-108C2986,-108 2746,-108 2746,-108 2740,-108 2734,-102 2734,-96 2734,-96 2734,-84 2734,-84 2734,-78 2740,-72 2746,-72 2746,-72 2986,-72 2986,-72 2992,-72 2998,-78 2998,-84 2998,-84 2998,-96 2998,-96 2998,-102 2992,-108 2986,-108"/>
<text text-anchor="middle" x="2866" y="-87.5" font-family="sans" font-size="10.00">NucDiff_Analysis_G3_PP_vs_H37rv_WithVCFoutput</text>
</g>
<!-- 24&#45;&gt;0 -->
<g id="edge24" class="edge">
<title>24&#45;&gt;0</title>
<path fill="none" stroke="grey" stroke-width="2" d="M2998.07,-72.88C3001.08,-72.58 3004.05,-72.28 3007,-72 3275.22,-46.21 3599.38,-27.1 3707.72,-21.04"/>
<polygon fill="grey" stroke="grey" stroke-width="2" points="3708.03,-24.53 3717.82,-20.48 3707.64,-17.54 3708.03,-24.53"/>
</g>
<!-- 25 -->
<g id="node26" class="node">
<title>25</title>
<path fill="none" stroke="#56d8d8" stroke-width="2" d="M3740,-108C3740,-108 3500,-108 3500,-108 3494,-108 3488,-102 3488,-96 3488,-96 3488,-84 3488,-84 3488,-78 3494,-72 3500,-72 3500,-72 3740,-72 3740,-72 3746,-72 3752,-78 3752,-84 3752,-84 3752,-96 3752,-96 3752,-102 3746,-108 3740,-108"/>
<text text-anchor="middle" x="3620" y="-87.5" font-family="sans" font-size="10.00">NucDiff_Analysis_G3_PP_vs_H37rv_WithVCFoutput</text>
</g>
<!-- 25&#45;&gt;0 -->
<g id="edge25" class="edge">
<title>25&#45;&gt;0</title>
<path fill="none" stroke="grey" stroke-width="2" d="M3650.58,-71.88C3668.22,-62 3690.5,-49.52 3708.98,-39.17"/>
<polygon fill="grey" stroke="grey" stroke-width="2" points="3710.7,-42.22 3717.72,-34.28 3707.28,-36.11 3710.7,-42.22"/>
</g>
<!-- 26 -->
<g id="node27" class="node">
<title>26</title>
<path fill="none" stroke="#56d8d8" stroke-width="2" d="M4494,-108C4494,-108 4254,-108 4254,-108 4248,-108 4242,-102 4242,-96 4242,-96 4242,-84 4242,-84 4242,-78 4248,-72 4254,-72 4254,-72 4494,-72 4494,-72 4500,-72 4506,-78 4506,-84 4506,-84 4506,-96 4506,-96 4506,-102 4500,-108 4494,-108"/>
<text text-anchor="middle" x="4374" y="-87.5" font-family="sans" font-size="10.00">NucDiff_Analysis_G3_PP_vs_H37rv_WithVCFoutput</text>
</g>
<!-- 26&#45;&gt;0 -->
<g id="edge26" class="edge">
<title>26&#45;&gt;0</title>
<path fill="none" stroke="grey" stroke-width="2" d="M4241.91,-73.03C4238.91,-72.68 4235.94,-72.34 4233,-72 4065.07,-52.76 3864.42,-31.52 3782.55,-22.93"/>
<polygon fill="grey" stroke="grey" stroke-width="2" points="3782.57,-19.41 3772.26,-21.85 3781.84,-26.37 3782.57,-19.41"/>
</g>
<!-- 27 -->
<g id="node28" class="node">
<title>27</title>
<path fill="none" stroke="#56d8d8" stroke-width="2" d="M5248,-108C5248,-108 5008,-108 5008,-108 5002,-108 4996,-102 4996,-96 4996,-96 4996,-84 4996,-84 4996,-78 5002,-72 5008,-72 5008,-72 5248,-72 5248,-72 5254,-72 5260,-78 5260,-84 5260,-84 5260,-96 5260,-96 5260,-102 5254,-108 5248,-108"/>
<text text-anchor="middle" x="5128" y="-87.5" font-family="sans" font-size="10.00">NucDiff_Analysis_G3_PP_vs_H37rv_WithVCFoutput</text>
</g>
<!-- 27&#45;&gt;0 -->
<g id="edge27" class="edge">
<title>27&#45;&gt;0</title>
<path fill="none" stroke="grey" stroke-width="2" d="M4995.94,-72.76C4992.93,-72.5 4989.95,-72.24 4987,-72 4512.25,-33.31 3932.96,-21.94 3782.25,-19.54"/>
<polygon fill="grey" stroke="grey" stroke-width="2" points="3782.2,-16.04 3772.14,-19.38 3782.09,-23.04 3782.2,-16.04"/>
</g>
<!-- 28 -->
<g id="node29" class="node">
<title>28</title>
<path fill="none" stroke="#56d8d8" stroke-width="2" d="M6002,-108C6002,-108 5762,-108 5762,-108 5756,-108 5750,-102 5750,-96 5750,-96 5750,-84 5750,-84 5750,-78 5756,-72 5762,-72 5762,-72 6002,-72 6002,-72 6008,-72 6014,-78 6014,-84 6014,-84 6014,-96 6014,-96 6014,-102 6008,-108 6002,-108"/>
<text text-anchor="middle" x="5882" y="-87.5" font-family="sans" font-size="10.00">NucDiff_Analysis_G3_PP_vs_H37rv_WithVCFoutput</text>
</g>
<!-- 28&#45;&gt;0 -->
<g id="edge28" class="edge">
<title>28&#45;&gt;0</title>
<path fill="none" stroke="grey" stroke-width="2" d="M5749.94,-72.7C5746.93,-72.45 5743.95,-72.22 5741,-72 4951.72,-14.07 3982.78,-17.31 3782.33,-18.69"/>
<polygon fill="grey" stroke="grey" stroke-width="2" points="3782.03,-15.19 3772.05,-18.77 3782.08,-22.19 3782.03,-15.19"/>
</g>
<!-- 29 -->
<g id="node30" class="node">
<title>29</title>
<path fill="none" stroke="#56d8d8" stroke-width="2" d="M6756,-108C6756,-108 6516,-108 6516,-108 6510,-108 6504,-102 6504,-96 6504,-96 6504,-84 6504,-84 6504,-78 6510,-72 6516,-72 6516,-72 6756,-72 6756,-72 6762,-72 6768,-78 6768,-84 6768,-84 6768,-96 6768,-96 6768,-102 6762,-108 6756,-108"/>
<text text-anchor="middle" x="6636" y="-87.5" font-family="sans" font-size="10.00">NucDiff_Analysis_G3_PP_vs_H37rv_WithVCFoutput</text>
</g>
<!-- 29&#45;&gt;0 -->
<g id="edge29" class="edge">
<title>29&#45;&gt;0</title>
<path fill="none" stroke="grey" stroke-width="2" d="M6503.94,-72.67C6500.94,-72.43 6497.95,-72.21 6495,-72 5932.97,-32.8 4070.61,-20.84 3782.56,-19.2"/>
<polygon fill="grey" stroke="grey" stroke-width="2" points="3782.26,-15.7 3772.24,-19.14 3782.22,-22.7 3782.26,-15.7"/>
</g>
<!-- 30 -->
<g id="node31" class="node">
<title>30</title>
<path fill="none" stroke="#56d8d8" stroke-width="2" d="M7510,-108C7510,-108 7270,-108 7270,-108 7264,-108 7258,-102 7258,-96 7258,-96 7258,-84 7258,-84 7258,-78 7264,-72 7270,-72 7270,-72 7510,-72 7510,-72 7516,-72 7522,-78 7522,-84 7522,-84 7522,-96 7522,-96 7522,-102 7516,-108 7510,-108"/>
<text text-anchor="middle" x="7390" y="-87.5" font-family="sans" font-size="10.00">NucDiff_Analysis_G3_PP_vs_H37rv_WithVCFoutput</text>
</g>
<!-- 30&#45;&gt;0 -->
<g id="edge30" class="edge">
<title>30&#45;&gt;0</title>
<path fill="none" stroke="grey" stroke-width="2" d="M7257.95,-72.65C7254.94,-72.42 7251.95,-72.2 7249,-72 6525.76,-23.07 4112.91,-19.31 3782.59,-19.02"/>
<polygon fill="grey" stroke="grey" stroke-width="2" points="3782.15,-15.52 3772.15,-19.01 3782.14,-22.52 3782.15,-15.52"/>
</g>
<!-- 31 -->
<g id="node32" class="node">
<title>31</title>
<path fill="none" stroke="#d85656" stroke-width="2" d="M429.5,-180C429.5,-180 244.5,-180 244.5,-180 238.5,-180 232.5,-174 232.5,-168 232.5,-168 232.5,-156 232.5,-156 232.5,-150 238.5,-144 244.5,-144 244.5,-144 429.5,-144 429.5,-144 435.5,-144 441.5,-150 441.5,-156 441.5,-156 441.5,-168 441.5,-168 441.5,-174 435.5,-180 429.5,-180"/>
<text text-anchor="middle" x="337" y="-159.5" font-family="sans" font-size="10.00">rename_SPAdesAssembly_WithBioAWK</text>
</g>
<!-- 31&#45;&gt;1 -->
<g id="edge31" class="edge">
<title>31&#45;&gt;1</title>
<path fill="none" stroke="grey" stroke-width="2" d="M279.57,-143.97C246.02,-134.01 203.51,-121.41 168.39,-110.99"/>
<polygon fill="grey" stroke="grey" stroke-width="2" points="169.27,-107.6 158.69,-108.11 167.28,-114.31 169.27,-107.6"/>
</g>
<!-- 31&#45;&gt;11 -->
<g id="edge41" class="edge">
<title>31&#45;&gt;11</title>
<path fill="none" stroke="grey" stroke-width="2" d="M337,-143.7C337,-135.98 337,-126.71 337,-118.11"/>
<polygon fill="grey" stroke="grey" stroke-width="2" points="340.5,-118.1 337,-108.1 333.5,-118.1 340.5,-118.1"/>
</g>
<!-- 31&#45;&gt;21 -->
<g id="edge51" class="edge">
<title>31&#45;&gt;21</title>
<path fill="none" stroke="grey" stroke-width="2" d="M401.97,-143.97C440.33,-133.91 489.05,-121.14 529.03,-110.65"/>
<polygon fill="grey" stroke="grey" stroke-width="2" points="529.95,-114.03 538.73,-108.11 528.17,-107.26 529.95,-114.03"/>
</g>
<!-- 32 -->
<g id="node33" class="node">
<title>32</title>
<path fill="none" stroke="#d85656" stroke-width="2" d="M1183.5,-180C1183.5,-180 998.5,-180 998.5,-180 992.5,-180 986.5,-174 986.5,-168 986.5,-168 986.5,-156 986.5,-156 986.5,-150 992.5,-144 998.5,-144 998.5,-144 1183.5,-144 1183.5,-144 1189.5,-144 1195.5,-150 1195.5,-156 1195.5,-156 1195.5,-168 1195.5,-168 1195.5,-174 1189.5,-180 1183.5,-180"/>
<text text-anchor="middle" x="1091" y="-159.5" font-family="sans" font-size="10.00">rename_SPAdesAssembly_WithBioAWK</text>
</g>
<!-- 32&#45;&gt;2 -->
<g id="edge32" class="edge">
<title>32&#45;&gt;2</title>
<path fill="none" stroke="grey" stroke-width="2" d="M1033.57,-143.97C1000.02,-134.01 957.51,-121.41 922.39,-110.99"/>
<polygon fill="grey" stroke="grey" stroke-width="2" points="923.27,-107.6 912.69,-108.11 921.28,-114.31 923.27,-107.6"/>
</g>
<!-- 32&#45;&gt;12 -->
<g id="edge42" class="edge">
<title>32&#45;&gt;12</title>
<path fill="none" stroke="grey" stroke-width="2" d="M1091,-143.7C1091,-135.98 1091,-126.71 1091,-118.11"/>
<polygon fill="grey" stroke="grey" stroke-width="2" points="1094.5,-118.1 1091,-108.1 1087.5,-118.1 1094.5,-118.1"/>
</g>
<!-- 32&#45;&gt;22 -->
<g id="edge52" class="edge">
<title>32&#45;&gt;22</title>
<path fill="none" stroke="grey" stroke-width="2" d="M1155.97,-143.97C1194.33,-133.91 1243.05,-121.14 1283.03,-110.65"/>
<polygon fill="grey" stroke="grey" stroke-width="2" points="1283.95,-114.03 1292.73,-108.11 1282.17,-107.26 1283.95,-114.03"/>
</g>
<!-- 33 -->
<g id="node34" class="node">
<title>33</title>
<path fill="none" stroke="#d85656" stroke-width="2" d="M1937.5,-180C1937.5,-180 1752.5,-180 1752.5,-180 1746.5,-180 1740.5,-174 1740.5,-168 1740.5,-168 1740.5,-156 1740.5,-156 1740.5,-150 1746.5,-144 1752.5,-144 1752.5,-144 1937.5,-144 1937.5,-144 1943.5,-144 1949.5,-150 1949.5,-156 1949.5,-156 1949.5,-168 1949.5,-168 1949.5,-174 1943.5,-180 1937.5,-180"/>
<text text-anchor="middle" x="1845" y="-159.5" font-family="sans" font-size="10.00">rename_SPAdesAssembly_WithBioAWK</text>
</g>
<!-- 33&#45;&gt;3 -->
<g id="edge33" class="edge">
<title>33&#45;&gt;3</title>
<path fill="none" stroke="grey" stroke-width="2" d="M1787.57,-143.97C1754.02,-134.01 1711.51,-121.41 1676.39,-110.99"/>
<polygon fill="grey" stroke="grey" stroke-width="2" points="1677.27,-107.6 1666.69,-108.11 1675.28,-114.31 1677.27,-107.6"/>
</g>
<!-- 33&#45;&gt;13 -->
<g id="edge43" class="edge">
<title>33&#45;&gt;13</title>
<path fill="none" stroke="grey" stroke-width="2" d="M1845,-143.7C1845,-135.98 1845,-126.71 1845,-118.11"/>
<polygon fill="grey" stroke="grey" stroke-width="2" points="1848.5,-118.1 1845,-108.1 1841.5,-118.1 1848.5,-118.1"/>
</g>
<!-- 33&#45;&gt;23 -->
<g id="edge53" class="edge">
<title>33&#45;&gt;23</title>
<path fill="none" stroke="grey" stroke-width="2" d="M1909.97,-143.97C1948.33,-133.91 1997.05,-121.14 2037.03,-110.65"/>
<polygon fill="grey" stroke="grey" stroke-width="2" points="2037.95,-114.03 2046.73,-108.11 2036.17,-107.26 2037.95,-114.03"/>
</g>
<!-- 34 -->
<g id="node35" class="node">
<title>34</title>
<path fill="none" stroke="#d85656" stroke-width="2" d="M2691.5,-180C2691.5,-180 2506.5,-180 2506.5,-180 2500.5,-180 2494.5,-174 2494.5,-168 2494.5,-168 2494.5,-156 2494.5,-156 2494.5,-150 2500.5,-144 2506.5,-144 2506.5,-144 2691.5,-144 2691.5,-144 2697.5,-144 2703.5,-150 2703.5,-156 2703.5,-156 2703.5,-168 2703.5,-168 2703.5,-174 2697.5,-180 2691.5,-180"/>
<text text-anchor="middle" x="2599" y="-159.5" font-family="sans" font-size="10.00">rename_SPAdesAssembly_WithBioAWK</text>
</g>
<!-- 34&#45;&gt;4 -->
<g id="edge34" class="edge">
<title>34&#45;&gt;4</title>
<path fill="none" stroke="grey" stroke-width="2" d="M2541.57,-143.97C2508.02,-134.01 2465.51,-121.41 2430.39,-110.99"/>
<polygon fill="grey" stroke="grey" stroke-width="2" points="2431.27,-107.6 2420.69,-108.11 2429.28,-114.31 2431.27,-107.6"/>
</g>
<!-- 34&#45;&gt;14 -->
<g id="edge44" class="edge">
<title>34&#45;&gt;14</title>
<path fill="none" stroke="grey" stroke-width="2" d="M2599,-143.7C2599,-135.98 2599,-126.71 2599,-118.11"/>
<polygon fill="grey" stroke="grey" stroke-width="2" points="2602.5,-118.1 2599,-108.1 2595.5,-118.1 2602.5,-118.1"/>
</g>
<!-- 34&#45;&gt;24 -->
<g id="edge54" class="edge">
<title>34&#45;&gt;24</title>
<path fill="none" stroke="grey" stroke-width="2" d="M2663.97,-143.97C2702.33,-133.91 2751.05,-121.14 2791.03,-110.65"/>
<polygon fill="grey" stroke="grey" stroke-width="2" points="2791.95,-114.03 2800.73,-108.11 2790.17,-107.26 2791.95,-114.03"/>
</g>
<!-- 35 -->
<g id="node36" class="node">
<title>35</title>
<path fill="none" stroke="#d85656" stroke-width="2" d="M3445.5,-180C3445.5,-180 3260.5,-180 3260.5,-180 3254.5,-180 3248.5,-174 3248.5,-168 3248.5,-168 3248.5,-156 3248.5,-156 3248.5,-150 3254.5,-144 3260.5,-144 3260.5,-144 3445.5,-144 3445.5,-144 3451.5,-144 3457.5,-150 3457.5,-156 3457.5,-156 3457.5,-168 3457.5,-168 3457.5,-174 3451.5,-180 3445.5,-180"/>
<text text-anchor="middle" x="3353" y="-159.5" font-family="sans" font-size="10.00">rename_SPAdesAssembly_WithBioAWK</text>
</g>
<!-- 35&#45;&gt;5 -->
<g id="edge35" class="edge">
<title>35&#45;&gt;5</title>
<path fill="none" stroke="grey" stroke-width="2" d="M3295.57,-143.97C3262.02,-134.01 3219.51,-121.41 3184.39,-110.99"/>
<polygon fill="grey" stroke="grey" stroke-width="2" points="3185.27,-107.6 3174.69,-108.11 3183.28,-114.31 3185.27,-107.6"/>
</g>
<!-- 35&#45;&gt;15 -->
<g id="edge45" class="edge">
<title>35&#45;&gt;15</title>
<path fill="none" stroke="grey" stroke-width="2" d="M3353,-143.7C3353,-135.98 3353,-126.71 3353,-118.11"/>
<polygon fill="grey" stroke="grey" stroke-width="2" points="3356.5,-118.1 3353,-108.1 3349.5,-118.1 3356.5,-118.1"/>
</g>
<!-- 35&#45;&gt;25 -->
<g id="edge55" class="edge">
<title>35&#45;&gt;25</title>
<path fill="none" stroke="grey" stroke-width="2" d="M3417.97,-143.97C3456.33,-133.91 3505.05,-121.14 3545.03,-110.65"/>
<polygon fill="grey" stroke="grey" stroke-width="2" points="3545.95,-114.03 3554.73,-108.11 3544.17,-107.26 3545.95,-114.03"/>
</g>
<!-- 36 -->
<g id="node37" class="node">
<title>36</title>
<path fill="none" stroke="#d85656" stroke-width="2" d="M4199.5,-180C4199.5,-180 4014.5,-180 4014.5,-180 4008.5,-180 4002.5,-174 4002.5,-168 4002.5,-168 4002.5,-156 4002.5,-156 4002.5,-150 4008.5,-144 4014.5,-144 4014.5,-144 4199.5,-144 4199.5,-144 4205.5,-144 4211.5,-150 4211.5,-156 4211.5,-156 4211.5,-168 4211.5,-168 4211.5,-174 4205.5,-180 4199.5,-180"/>
<text text-anchor="middle" x="4107" y="-159.5" font-family="sans" font-size="10.00">rename_SPAdesAssembly_WithBioAWK</text>
</g>
<!-- 36&#45;&gt;6 -->
<g id="edge36" class="edge">
<title>36&#45;&gt;6</title>
<path fill="none" stroke="grey" stroke-width="2" d="M4049.57,-143.97C4016.02,-134.01 3973.51,-121.41 3938.39,-110.99"/>
<polygon fill="grey" stroke="grey" stroke-width="2" points="3939.27,-107.6 3928.69,-108.11 3937.28,-114.31 3939.27,-107.6"/>
</g>
<!-- 36&#45;&gt;16 -->
<g id="edge46" class="edge">
<title>36&#45;&gt;16</title>
<path fill="none" stroke="grey" stroke-width="2" d="M4107,-143.7C4107,-135.98 4107,-126.71 4107,-118.11"/>
<polygon fill="grey" stroke="grey" stroke-width="2" points="4110.5,-118.1 4107,-108.1 4103.5,-118.1 4110.5,-118.1"/>
</g>
<!-- 36&#45;&gt;26 -->
<g id="edge56" class="edge">
<title>36&#45;&gt;26</title>
<path fill="none" stroke="grey" stroke-width="2" d="M4171.97,-143.97C4210.33,-133.91 4259.05,-121.14 4299.03,-110.65"/>
<polygon fill="grey" stroke="grey" stroke-width="2" points="4299.95,-114.03 4308.73,-108.11 4298.17,-107.26 4299.95,-114.03"/>
</g>
<!-- 37 -->
<g id="node38" class="node">
<title>37</title>
<path fill="none" stroke="#d85656" stroke-width="2" d="M4953.5,-180C4953.5,-180 4768.5,-180 4768.5,-180 4762.5,-180 4756.5,-174 4756.5,-168 4756.5,-168 4756.5,-156 4756.5,-156 4756.5,-150 4762.5,-144 4768.5,-144 4768.5,-144 4953.5,-144 4953.5,-144 4959.5,-144 4965.5,-150 4965.5,-156 4965.5,-156 4965.5,-168 4965.5,-168 4965.5,-174 4959.5,-180 4953.5,-180"/>
<text text-anchor="middle" x="4861" y="-159.5" font-family="sans" font-size="10.00">rename_SPAdesAssembly_WithBioAWK</text>
</g>
<!-- 37&#45;&gt;7 -->
<g id="edge37" class="edge">
<title>37&#45;&gt;7</title>
<path fill="none" stroke="grey" stroke-width="2" d="M4803.57,-143.97C4770.02,-134.01 4727.51,-121.41 4692.39,-110.99"/>
<polygon fill="grey" stroke="grey" stroke-width="2" points="4693.27,-107.6 4682.69,-108.11 4691.28,-114.31 4693.27,-107.6"/>
</g>
<!-- 37&#45;&gt;17 -->
<g id="edge47" class="edge">
<title>37&#45;&gt;17</title>
<path fill="none" stroke="grey" stroke-width="2" d="M4861,-143.7C4861,-135.98 4861,-126.71 4861,-118.11"/>
<polygon fill="grey" stroke="grey" stroke-width="2" points="4864.5,-118.1 4861,-108.1 4857.5,-118.1 4864.5,-118.1"/>
</g>
<!-- 37&#45;&gt;27 -->
<g id="edge57" class="edge">
<title>37&#45;&gt;27</title>
<path fill="none" stroke="grey" stroke-width="2" d="M4925.97,-143.97C4964.33,-133.91 5013.05,-121.14 5053.03,-110.65"/>
<polygon fill="grey" stroke="grey" stroke-width="2" points="5053.95,-114.03 5062.73,-108.11 5052.17,-107.26 5053.95,-114.03"/>
</g>
<!-- 38 -->
<g id="node39" class="node">
<title>38</title>
<path fill="none" stroke="#d85656" stroke-width="2" d="M5707.5,-180C5707.5,-180 5522.5,-180 5522.5,-180 5516.5,-180 5510.5,-174 5510.5,-168 5510.5,-168 5510.5,-156 5510.5,-156 5510.5,-150 5516.5,-144 5522.5,-144 5522.5,-144 5707.5,-144 5707.5,-144 5713.5,-144 5719.5,-150 5719.5,-156 5719.5,-156 5719.5,-168 5719.5,-168 5719.5,-174 5713.5,-180 5707.5,-180"/>
<text text-anchor="middle" x="5615" y="-159.5" font-family="sans" font-size="10.00">rename_SPAdesAssembly_WithBioAWK</text>
</g>
<!-- 38&#45;&gt;8 -->
<g id="edge38" class="edge">
<title>38&#45;&gt;8</title>
<path fill="none" stroke="grey" stroke-width="2" d="M5557.57,-143.97C5524.02,-134.01 5481.51,-121.41 5446.39,-110.99"/>
<polygon fill="grey" stroke="grey" stroke-width="2" points="5447.27,-107.6 5436.69,-108.11 5445.28,-114.31 5447.27,-107.6"/>
</g>
<!-- 38&#45;&gt;18 -->
<g id="edge48" class="edge">
<title>38&#45;&gt;18</title>
<path fill="none" stroke="grey" stroke-width="2" d="M5615,-143.7C5615,-135.98 5615,-126.71 5615,-118.11"/>
<polygon fill="grey" stroke="grey" stroke-width="2" points="5618.5,-118.1 5615,-108.1 5611.5,-118.1 5618.5,-118.1"/>
</g>
<!-- 38&#45;&gt;28 -->
<g id="edge58" class="edge">
<title>38&#45;&gt;28</title>
<path fill="none" stroke="grey" stroke-width="2" d="M5679.97,-143.97C5718.33,-133.91 5767.05,-121.14 5807.03,-110.65"/>
<polygon fill="grey" stroke="grey" stroke-width="2" points="5807.95,-114.03 5816.73,-108.11 5806.17,-107.26 5807.95,-114.03"/>
</g>
<!-- 39 -->
<g id="node40" class="node">
<title>39</title>
<path fill="none" stroke="#d85656" stroke-width="2" d="M6461.5,-180C6461.5,-180 6276.5,-180 6276.5,-180 6270.5,-180 6264.5,-174 6264.5,-168 6264.5,-168 6264.5,-156 6264.5,-156 6264.5,-150 6270.5,-144 6276.5,-144 6276.5,-144 6461.5,-144 6461.5,-144 6467.5,-144 6473.5,-150 6473.5,-156 6473.5,-156 6473.5,-168 6473.5,-168 6473.5,-174 6467.5,-180 6461.5,-180"/>
<text text-anchor="middle" x="6369" y="-159.5" font-family="sans" font-size="10.00">rename_SPAdesAssembly_WithBioAWK</text>
</g>
<!-- 39&#45;&gt;9 -->
<g id="edge39" class="edge">
<title>39&#45;&gt;9</title>
<path fill="none" stroke="grey" stroke-width="2" d="M6311.57,-143.97C6278.02,-134.01 6235.51,-121.41 6200.39,-110.99"/>
<polygon fill="grey" stroke="grey" stroke-width="2" points="6201.27,-107.6 6190.69,-108.11 6199.28,-114.31 6201.27,-107.6"/>
</g>
<!-- 39&#45;&gt;19 -->
<g id="edge49" class="edge">
<title>39&#45;&gt;19</title>
<path fill="none" stroke="grey" stroke-width="2" d="M6369,-143.7C6369,-135.98 6369,-126.71 6369,-118.11"/>
<polygon fill="grey" stroke="grey" stroke-width="2" points="6372.5,-118.1 6369,-108.1 6365.5,-118.1 6372.5,-118.1"/>
</g>
<!-- 39&#45;&gt;29 -->
<g id="edge59" class="edge">
<title>39&#45;&gt;29</title>
<path fill="none" stroke="grey" stroke-width="2" d="M6433.97,-143.97C6472.33,-133.91 6521.05,-121.14 6561.03,-110.65"/>
<polygon fill="grey" stroke="grey" stroke-width="2" points="6561.95,-114.03 6570.73,-108.11 6560.17,-107.26 6561.95,-114.03"/>
</g>
<!-- 40 -->
<g id="node41" class="node">
<title>40</title>
<path fill="none" stroke="#d85656" stroke-width="2" d="M7215.5,-180C7215.5,-180 7030.5,-180 7030.5,-180 7024.5,-180 7018.5,-174 7018.5,-168 7018.5,-168 7018.5,-156 7018.5,-156 7018.5,-150 7024.5,-144 7030.5,-144 7030.5,-144 7215.5,-144 7215.5,-144 7221.5,-144 7227.5,-150 7227.5,-156 7227.5,-156 7227.5,-168 7227.5,-168 7227.5,-174 7221.5,-180 7215.5,-180"/>
<text text-anchor="middle" x="7123" y="-159.5" font-family="sans" font-size="10.00">rename_SPAdesAssembly_WithBioAWK</text>
</g>
<!-- 40&#45;&gt;10 -->
<g id="edge40" class="edge">
<title>40&#45;&gt;10</title>
<path fill="none" stroke="grey" stroke-width="2" d="M7065.57,-143.97C7032.02,-134.01 6989.51,-121.41 6954.39,-110.99"/>
<polygon fill="grey" stroke="grey" stroke-width="2" points="6955.27,-107.6 6944.69,-108.11 6953.28,-114.31 6955.27,-107.6"/>
</g>
<!-- 40&#45;&gt;20 -->
<g id="edge50" class="edge">
<title>40&#45;&gt;20</title>
<path fill="none" stroke="grey" stroke-width="2" d="M7123,-143.7C7123,-135.98 7123,-126.71 7123,-118.11"/>
<polygon fill="grey" stroke="grey" stroke-width="2" points="7126.5,-118.1 7123,-108.1 7119.5,-118.1 7126.5,-118.1"/>
</g>
<!-- 40&#45;&gt;30 -->
<g id="edge60" class="edge">
<title>40&#45;&gt;30</title>
<path fill="none" stroke="grey" stroke-width="2" d="M7187.97,-143.97C7226.33,-133.91 7275.05,-121.14 7315.03,-110.65"/>
<polygon fill="grey" stroke="grey" stroke-width="2" points="7315.95,-114.03 7324.73,-108.11 7314.17,-107.26 7315.95,-114.03"/>
</g>
<!-- 41 -->
<g id="node42" class="node">
<title>41</title>
<path fill="none" stroke="#56d89a" stroke-width="2" d="M436.5,-252C436.5,-252 237.5,-252 237.5,-252 231.5,-252 225.5,-246 225.5,-240 225.5,-240 225.5,-228 225.5,-228 225.5,-222 231.5,-216 237.5,-216 237.5,-216 436.5,-216 436.5,-216 442.5,-216 448.5,-222 448.5,-228 448.5,-228 448.5,-240 448.5,-240 448.5,-246 442.5,-252 436.5,-252"/>
<text text-anchor="middle" x="337" y="-231.5" font-family="sans" font-size="10.00">unicycler_SPAdes_Assemble_IlluminaWGS</text>
</g>
<!-- 41&#45;&gt;31 -->
<g id="edge61" class="edge">
<title>41&#45;&gt;31</title>
<path fill="none" stroke="grey" stroke-width="2" d="M337,-215.7C337,-207.98 337,-198.71 337,-190.11"/>
<polygon fill="grey" stroke="grey" stroke-width="2" points="340.5,-190.1 337,-180.1 333.5,-190.1 340.5,-190.1"/>
</g>
<!-- 42 -->
<g id="node43" class="node">
<title>42</title>
<path fill="none" stroke="#56d89a" stroke-width="2" d="M1190.5,-252C1190.5,-252 991.5,-252 991.5,-252 985.5,-252 979.5,-246 979.5,-240 979.5,-240 979.5,-228 979.5,-228 979.5,-222 985.5,-216 991.5,-216 991.5,-216 1190.5,-216 1190.5,-216 1196.5,-216 1202.5,-222 1202.5,-228 1202.5,-228 1202.5,-240 1202.5,-240 1202.5,-246 1196.5,-252 1190.5,-252"/>
<text text-anchor="middle" x="1091" y="-231.5" font-family="sans" font-size="10.00">unicycler_SPAdes_Assemble_IlluminaWGS</text>
</g>
<!-- 42&#45;&gt;32 -->
<g id="edge62" class="edge">
<title>42&#45;&gt;32</title>
<path fill="none" stroke="grey" stroke-width="2" d="M1091,-215.7C1091,-207.98 1091,-198.71 1091,-190.11"/>
<polygon fill="grey" stroke="grey" stroke-width="2" points="1094.5,-190.1 1091,-180.1 1087.5,-190.1 1094.5,-190.1"/>
</g>
<!-- 43 -->
<g id="node44" class="node">
<title>43</title>
<path fill="none" stroke="#56d89a" stroke-width="2" d="M1944.5,-252C1944.5,-252 1745.5,-252 1745.5,-252 1739.5,-252 1733.5,-246 1733.5,-240 1733.5,-240 1733.5,-228 1733.5,-228 1733.5,-222 1739.5,-216 1745.5,-216 1745.5,-216 1944.5,-216 1944.5,-216 1950.5,-216 1956.5,-222 1956.5,-228 1956.5,-228 1956.5,-240 1956.5,-240 1956.5,-246 1950.5,-252 1944.5,-252"/>
<text text-anchor="middle" x="1845" y="-231.5" font-family="sans" font-size="10.00">unicycler_SPAdes_Assemble_IlluminaWGS</text>
</g>
<!-- 43&#45;&gt;33 -->
<g id="edge63" class="edge">
<title>43&#45;&gt;33</title>
<path fill="none" stroke="grey" stroke-width="2" d="M1845,-215.7C1845,-207.98 1845,-198.71 1845,-190.11"/>
<polygon fill="grey" stroke="grey" stroke-width="2" points="1848.5,-190.1 1845,-180.1 1841.5,-190.1 1848.5,-190.1"/>
</g>
<!-- 44 -->
<g id="node45" class="node">
<title>44</title>
<path fill="none" stroke="#56d89a" stroke-width="2" d="M2698.5,-252C2698.5,-252 2499.5,-252 2499.5,-252 2493.5,-252 2487.5,-246 2487.5,-240 2487.5,-240 2487.5,-228 2487.5,-228 2487.5,-222 2493.5,-216 2499.5,-216 2499.5,-216 2698.5,-216 2698.5,-216 2704.5,-216 2710.5,-222 2710.5,-228 2710.5,-228 2710.5,-240 2710.5,-240 2710.5,-246 2704.5,-252 2698.5,-252"/>
<text text-anchor="middle" x="2599" y="-231.5" font-family="sans" font-size="10.00">unicycler_SPAdes_Assemble_IlluminaWGS</text>
</g>
<!-- 44&#45;&gt;34 -->
<g id="edge64" class="edge">
<title>44&#45;&gt;34</title>
<path fill="none" stroke="grey" stroke-width="2" d="M2599,-215.7C2599,-207.98 2599,-198.71 2599,-190.11"/>
<polygon fill="grey" stroke="grey" stroke-width="2" points="2602.5,-190.1 2599,-180.1 2595.5,-190.1 2602.5,-190.1"/>
</g>
<!-- 45 -->
<g id="node46" class="node">
<title>45</title>
<path fill="none" stroke="#56d89a" stroke-width="2" d="M3452.5,-252C3452.5,-252 3253.5,-252 3253.5,-252 3247.5,-252 3241.5,-246 3241.5,-240 3241.5,-240 3241.5,-228 3241.5,-228 3241.5,-222 3247.5,-216 3253.5,-216 3253.5,-216 3452.5,-216 3452.5,-216 3458.5,-216 3464.5,-222 3464.5,-228 3464.5,-228 3464.5,-240 3464.5,-240 3464.5,-246 3458.5,-252 3452.5,-252"/>
<text text-anchor="middle" x="3353" y="-231.5" font-family="sans" font-size="10.00">unicycler_SPAdes_Assemble_IlluminaWGS</text>
</g>
<!-- 45&#45;&gt;35 -->
<g id="edge65" class="edge">
<title>45&#45;&gt;35</title>
<path fill="none" stroke="grey" stroke-width="2" d="M3353,-215.7C3353,-207.98 3353,-198.71 3353,-190.11"/>
<polygon fill="grey" stroke="grey" stroke-width="2" points="3356.5,-190.1 3353,-180.1 3349.5,-190.1 3356.5,-190.1"/>
</g>
<!-- 46 -->
<g id="node47" class="node">
<title>46</title>
<path fill="none" stroke="#56d89a" stroke-width="2" d="M4206.5,-252C4206.5,-252 4007.5,-252 4007.5,-252 4001.5,-252 3995.5,-246 3995.5,-240 3995.5,-240 3995.5,-228 3995.5,-228 3995.5,-222 4001.5,-216 4007.5,-216 4007.5,-216 4206.5,-216 4206.5,-216 4212.5,-216 4218.5,-222 4218.5,-228 4218.5,-228 4218.5,-240 4218.5,-240 4218.5,-246 4212.5,-252 4206.5,-252"/>
<text text-anchor="middle" x="4107" y="-231.5" font-family="sans" font-size="10.00">unicycler_SPAdes_Assemble_IlluminaWGS</text>
</g>
<!-- 46&#45;&gt;36 -->
<g id="edge66" class="edge">
<title>46&#45;&gt;36</title>
<path fill="none" stroke="grey" stroke-width="2" d="M4107,-215.7C4107,-207.98 4107,-198.71 4107,-190.11"/>
<polygon fill="grey" stroke="grey" stroke-width="2" points="4110.5,-190.1 4107,-180.1 4103.5,-190.1 4110.5,-190.1"/>
</g>
<!-- 47 -->
<g id="node48" class="node">
<title>47</title>
<path fill="none" stroke="#56d89a" stroke-width="2" d="M4960.5,-252C4960.5,-252 4761.5,-252 4761.5,-252 4755.5,-252 4749.5,-246 4749.5,-240 4749.5,-240 4749.5,-228 4749.5,-228 4749.5,-222 4755.5,-216 4761.5,-216 4761.5,-216 4960.5,-216 4960.5,-216 4966.5,-216 4972.5,-222 4972.5,-228 4972.5,-228 4972.5,-240 4972.5,-240 4972.5,-246 4966.5,-252 4960.5,-252"/>
<text text-anchor="middle" x="4861" y="-231.5" font-family="sans" font-size="10.00">unicycler_SPAdes_Assemble_IlluminaWGS</text>
</g>
<!-- 47&#45;&gt;37 -->
<g id="edge67" class="edge">
<title>47&#45;&gt;37</title>
<path fill="none" stroke="grey" stroke-width="2" d="M4861,-215.7C4861,-207.98 4861,-198.71 4861,-190.11"/>
<polygon fill="grey" stroke="grey" stroke-width="2" points="4864.5,-190.1 4861,-180.1 4857.5,-190.1 4864.5,-190.1"/>
</g>
<!-- 48 -->
<g id="node49" class="node">
<title>48</title>
<path fill="none" stroke="#56d89a" stroke-width="2" d="M5714.5,-252C5714.5,-252 5515.5,-252 5515.5,-252 5509.5,-252 5503.5,-246 5503.5,-240 5503.5,-240 5503.5,-228 5503.5,-228 5503.5,-222 5509.5,-216 5515.5,-216 5515.5,-216 5714.5,-216 5714.5,-216 5720.5,-216 5726.5,-222 5726.5,-228 5726.5,-228 5726.5,-240 5726.5,-240 5726.5,-246 5720.5,-252 5714.5,-252"/>
<text text-anchor="middle" x="5615" y="-231.5" font-family="sans" font-size="10.00">unicycler_SPAdes_Assemble_IlluminaWGS</text>
</g>
<!-- 48&#45;&gt;38 -->
<g id="edge68" class="edge">
<title>48&#45;&gt;38</title>
<path fill="none" stroke="grey" stroke-width="2" d="M5615,-215.7C5615,-207.98 5615,-198.71 5615,-190.11"/>
<polygon fill="grey" stroke="grey" stroke-width="2" points="5618.5,-190.1 5615,-180.1 5611.5,-190.1 5618.5,-190.1"/>
</g>
<!-- 49 -->
<g id="node50" class="node">
<title>49</title>
<path fill="none" stroke="#56d89a" stroke-width="2" d="M6468.5,-252C6468.5,-252 6269.5,-252 6269.5,-252 6263.5,-252 6257.5,-246 6257.5,-240 6257.5,-240 6257.5,-228 6257.5,-228 6257.5,-222 6263.5,-216 6269.5,-216 6269.5,-216 6468.5,-216 6468.5,-216 6474.5,-216 6480.5,-222 6480.5,-228 6480.5,-228 6480.5,-240 6480.5,-240 6480.5,-246 6474.5,-252 6468.5,-252"/>
<text text-anchor="middle" x="6369" y="-231.5" font-family="sans" font-size="10.00">unicycler_SPAdes_Assemble_IlluminaWGS</text>
</g>
<!-- 49&#45;&gt;39 -->
<g id="edge69" class="edge">
<title>49&#45;&gt;39</title>
<path fill="none" stroke="grey" stroke-width="2" d="M6369,-215.7C6369,-207.98 6369,-198.71 6369,-190.11"/>
<polygon fill="grey" stroke="grey" stroke-width="2" points="6372.5,-190.1 6369,-180.1 6365.5,-190.1 6372.5,-190.1"/>
</g>
<!-- 50 -->
<g id="node51" class="node">
<title>50</title>
<path fill="none" stroke="#56d89a" stroke-width="2" d="M7222.5,-252C7222.5,-252 7023.5,-252 7023.5,-252 7017.5,-252 7011.5,-246 7011.5,-240 7011.5,-240 7011.5,-228 7011.5,-228 7011.5,-222 7017.5,-216 7023.5,-216 7023.5,-216 7222.5,-216 7222.5,-216 7228.5,-216 7234.5,-222 7234.5,-228 7234.5,-228 7234.5,-240 7234.5,-240 7234.5,-246 7228.5,-252 7222.5,-252"/>
<text text-anchor="middle" x="7123" y="-231.5" font-family="sans" font-size="10.00">unicycler_SPAdes_Assemble_IlluminaWGS</text>
</g>
<!-- 50&#45;&gt;40 -->
<g id="edge70" class="edge">
<title>50&#45;&gt;40</title>
<path fill="none" stroke="grey" stroke-width="2" d="M7123,-215.7C7123,-207.98 7123,-198.71 7123,-190.11"/>
<polygon fill="grey" stroke="grey" stroke-width="2" points="7126.5,-190.1 7123,-180.1 7119.5,-190.1 7126.5,-190.1"/>
</g>
<!-- 51 -->
<g id="node52" class="node">
<title>51</title>
<path fill="none" stroke="#59d856" stroke-width="2" d="M422,-324C422,-324 252,-324 252,-324 246,-324 240,-318 240,-312 240,-312 240,-300 240,-300 240,-294 246,-288 252,-288 252,-288 422,-288 422,-288 428,-288 434,-294 434,-300 434,-300 434,-312 434,-312 434,-318 428,-324 422,-324"/>
<text text-anchor="middle" x="337" y="-303.5" font-family="sans" font-size="10.00">trimmomatic_Illumina_PE_Trimming</text>
</g>
<!-- 51&#45;&gt;41 -->
<g id="edge71" class="edge">
<title>51&#45;&gt;41</title>
<path fill="none" stroke="grey" stroke-width="2" d="M337,-287.7C337,-279.98 337,-270.71 337,-262.11"/>
<polygon fill="grey" stroke="grey" stroke-width="2" points="340.5,-262.1 337,-252.1 333.5,-262.1 340.5,-262.1"/>
</g>
<!-- 52 -->
<g id="node53" class="node">
<title>52</title>
<path fill="none" stroke="#59d856" stroke-width="2" d="M1176,-324C1176,-324 1006,-324 1006,-324 1000,-324 994,-318 994,-312 994,-312 994,-300 994,-300 994,-294 1000,-288 1006,-288 1006,-288 1176,-288 1176,-288 1182,-288 1188,-294 1188,-300 1188,-300 1188,-312 1188,-312 1188,-318 1182,-324 1176,-324"/>
<text text-anchor="middle" x="1091" y="-303.5" font-family="sans" font-size="10.00">trimmomatic_Illumina_PE_Trimming</text>
</g>
<!-- 52&#45;&gt;42 -->
<g id="edge72" class="edge">
<title>52&#45;&gt;42</title>
<path fill="none" stroke="grey" stroke-width="2" d="M1091,-287.7C1091,-279.98 1091,-270.71 1091,-262.11"/>
<polygon fill="grey" stroke="grey" stroke-width="2" points="1094.5,-262.1 1091,-252.1 1087.5,-262.1 1094.5,-262.1"/>
</g>
<!-- 53 -->
<g id="node54" class="node">
<title>53</title>
<path fill="none" stroke="#59d856" stroke-width="2" d="M1930,-324C1930,-324 1760,-324 1760,-324 1754,-324 1748,-318 1748,-312 1748,-312 1748,-300 1748,-300 1748,-294 1754,-288 1760,-288 1760,-288 1930,-288 1930,-288 1936,-288 1942,-294 1942,-300 1942,-300 1942,-312 1942,-312 1942,-318 1936,-324 1930,-324"/>
<text text-anchor="middle" x="1845" y="-303.5" font-family="sans" font-size="10.00">trimmomatic_Illumina_PE_Trimming</text>
</g>
<!-- 53&#45;&gt;43 -->
<g id="edge73" class="edge">
<title>53&#45;&gt;43</title>
<path fill="none" stroke="grey" stroke-width="2" d="M1845,-287.7C1845,-279.98 1845,-270.71 1845,-262.11"/>
<polygon fill="grey" stroke="grey" stroke-width="2" points="1848.5,-262.1 1845,-252.1 1841.5,-262.1 1848.5,-262.1"/>
</g>
<!-- 54 -->
<g id="node55" class="node">
<title>54</title>
<path fill="none" stroke="#59d856" stroke-width="2" d="M2684,-324C2684,-324 2514,-324 2514,-324 2508,-324 2502,-318 2502,-312 2502,-312 2502,-300 2502,-300 2502,-294 2508,-288 2514,-288 2514,-288 2684,-288 2684,-288 2690,-288 2696,-294 2696,-300 2696,-300 2696,-312 2696,-312 2696,-318 2690,-324 2684,-324"/>
<text text-anchor="middle" x="2599" y="-303.5" font-family="sans" font-size="10.00">trimmomatic_Illumina_PE_Trimming</text>
</g>
<!-- 54&#45;&gt;44 -->
<g id="edge74" class="edge">
<title>54&#45;&gt;44</title>
<path fill="none" stroke="grey" stroke-width="2" d="M2599,-287.7C2599,-279.98 2599,-270.71 2599,-262.11"/>
<polygon fill="grey" stroke="grey" stroke-width="2" points="2602.5,-262.1 2599,-252.1 2595.5,-262.1 2602.5,-262.1"/>
</g>
<!-- 55 -->
<g id="node56" class="node">
<title>55</title>
<path fill="none" stroke="#59d856" stroke-width="2" d="M3438,-324C3438,-324 3268,-324 3268,-324 3262,-324 3256,-318 3256,-312 3256,-312 3256,-300 3256,-300 3256,-294 3262,-288 3268,-288 3268,-288 3438,-288 3438,-288 3444,-288 3450,-294 3450,-300 3450,-300 3450,-312 3450,-312 3450,-318 3444,-324 3438,-324"/>
<text text-anchor="middle" x="3353" y="-303.5" font-family="sans" font-size="10.00">trimmomatic_Illumina_PE_Trimming</text>
</g>
<!-- 55&#45;&gt;45 -->
<g id="edge75" class="edge">
<title>55&#45;&gt;45</title>
<path fill="none" stroke="grey" stroke-width="2" d="M3353,-287.7C3353,-279.98 3353,-270.71 3353,-262.11"/>
<polygon fill="grey" stroke="grey" stroke-width="2" points="3356.5,-262.1 3353,-252.1 3349.5,-262.1 3356.5,-262.1"/>
</g>
<!-- 56 -->
<g id="node57" class="node">
<title>56</title>
<path fill="none" stroke="#59d856" stroke-width="2" d="M4192,-324C4192,-324 4022,-324 4022,-324 4016,-324 4010,-318 4010,-312 4010,-312 4010,-300 4010,-300 4010,-294 4016,-288 4022,-288 4022,-288 4192,-288 4192,-288 4198,-288 4204,-294 4204,-300 4204,-300 4204,-312 4204,-312 4204,-318 4198,-324 4192,-324"/>
<text text-anchor="middle" x="4107" y="-303.5" font-family="sans" font-size="10.00">trimmomatic_Illumina_PE_Trimming</text>
</g>
<!-- 56&#45;&gt;46 -->
<g id="edge76" class="edge">
<title>56&#45;&gt;46</title>
<path fill="none" stroke="grey" stroke-width="2" d="M4107,-287.7C4107,-279.98 4107,-270.71 4107,-262.11"/>
<polygon fill="grey" stroke="grey" stroke-width="2" points="4110.5,-262.1 4107,-252.1 4103.5,-262.1 4110.5,-262.1"/>
</g>
<!-- 57 -->
<g id="node58" class="node">
<title>57</title>
<path fill="none" stroke="#59d856" stroke-width="2" d="M4946,-324C4946,-324 4776,-324 4776,-324 4770,-324 4764,-318 4764,-312 4764,-312 4764,-300 4764,-300 4764,-294 4770,-288 4776,-288 4776,-288 4946,-288 4946,-288 4952,-288 4958,-294 4958,-300 4958,-300 4958,-312 4958,-312 4958,-318 4952,-324 4946,-324"/>
<text text-anchor="middle" x="4861" y="-303.5" font-family="sans" font-size="10.00">trimmomatic_Illumina_PE_Trimming</text>
</g>
<!-- 57&#45;&gt;47 -->
<g id="edge77" class="edge">
<title>57&#45;&gt;47</title>
<path fill="none" stroke="grey" stroke-width="2" d="M4861,-287.7C4861,-279.98 4861,-270.71 4861,-262.11"/>
<polygon fill="grey" stroke="grey" stroke-width="2" points="4864.5,-262.1 4861,-252.1 4857.5,-262.1 4864.5,-262.1"/>
</g>
<!-- 58 -->
<g id="node59" class="node">
<title>58</title>
<path fill="none" stroke="#59d856" stroke-width="2" d="M5700,-324C5700,-324 5530,-324 5530,-324 5524,-324 5518,-318 5518,-312 5518,-312 5518,-300 5518,-300 5518,-294 5524,-288 5530,-288 5530,-288 5700,-288 5700,-288 5706,-288 5712,-294 5712,-300 5712,-300 5712,-312 5712,-312 5712,-318 5706,-324 5700,-324"/>
<text text-anchor="middle" x="5615" y="-303.5" font-family="sans" font-size="10.00">trimmomatic_Illumina_PE_Trimming</text>
</g>
<!-- 58&#45;&gt;48 -->
<g id="edge78" class="edge">
<title>58&#45;&gt;48</title>
<path fill="none" stroke="grey" stroke-width="2" d="M5615,-287.7C5615,-279.98 5615,-270.71 5615,-262.11"/>
<polygon fill="grey" stroke="grey" stroke-width="2" points="5618.5,-262.1 5615,-252.1 5611.5,-262.1 5618.5,-262.1"/>
</g>
<!-- 59 -->
<g id="node60" class="node">
<title>59</title>
<path fill="none" stroke="#59d856" stroke-width="2" d="M6454,-324C6454,-324 6284,-324 6284,-324 6278,-324 6272,-318 6272,-312 6272,-312 6272,-300 6272,-300 6272,-294 6278,-288 6284,-288 6284,-288 6454,-288 6454,-288 6460,-288 6466,-294 6466,-300 6466,-300 6466,-312 6466,-312 6466,-318 6460,-324 6454,-324"/>
<text text-anchor="middle" x="6369" y="-303.5" font-family="sans" font-size="10.00">trimmomatic_Illumina_PE_Trimming</text>
</g>
<!-- 59&#45;&gt;49 -->
<g id="edge79" class="edge">
<title>59&#45;&gt;49</title>
<path fill="none" stroke="grey" stroke-width="2" d="M6369,-287.7C6369,-279.98 6369,-270.71 6369,-262.11"/>
<polygon fill="grey" stroke="grey" stroke-width="2" points="6372.5,-262.1 6369,-252.1 6365.5,-262.1 6372.5,-262.1"/>
</g>
<!-- 60 -->
<g id="node61" class="node">
<title>60</title>
<path fill="none" stroke="#59d856" stroke-width="2" d="M7208,-324C7208,-324 7038,-324 7038,-324 7032,-324 7026,-318 7026,-312 7026,-312 7026,-300 7026,-300 7026,-294 7032,-288 7038,-288 7038,-288 7208,-288 7208,-288 7214,-288 7220,-294 7220,-300 7220,-300 7220,-312 7220,-312 7220,-318 7214,-324 7208,-324"/>
<text text-anchor="middle" x="7123" y="-303.5" font-family="sans" font-size="10.00">trimmomatic_Illumina_PE_Trimming</text>
</g>
<!-- 60&#45;&gt;50 -->
<g id="edge80" class="edge">
<title>60&#45;&gt;50</title>
<path fill="none" stroke="grey" stroke-width="2" d="M7123,-287.7C7123,-279.98 7123,-270.71 7123,-262.11"/>
<polygon fill="grey" stroke="grey" stroke-width="2" points="7126.5,-262.1 7123,-252.1 7119.5,-262.1 7126.5,-262.1"/>
</g>
<!-- 61 -->
<g id="node62" class="node">
<title>61</title>
<path fill="none" stroke="#d6d856" stroke-width="2" d="M422,-396C422,-396 252,-396 252,-396 246,-396 240,-390 240,-384 240,-384 240,-372 240,-372 240,-366 246,-360 252,-360 252,-360 422,-360 422,-360 428,-360 434,-366 434,-372 434,-372 434,-384 434,-384 434,-390 428,-396 422,-396"/>
<text text-anchor="middle" x="337" y="-381" font-family="sans" font-size="10.00">download_FQ_FromSRA_RunID</text>
<text text-anchor="middle" x="337" y="-370" font-family="sans" font-size="10.00">sampleID_WiIllumina: SRR11140744</text>
</g>
<!-- 61&#45;&gt;51 -->
<g id="edge81" class="edge">
<title>61&#45;&gt;51</title>
<path fill="none" stroke="grey" stroke-width="2" d="M337,-359.7C337,-351.98 337,-342.71 337,-334.11"/>
<polygon fill="grey" stroke="grey" stroke-width="2" points="340.5,-334.1 337,-324.1 333.5,-334.1 340.5,-334.1"/>
</g>
<!-- 62 -->
<g id="node63" class="node">
<title>62</title>
<path fill="none" stroke="#d6d856" stroke-width="2" d="M1176,-396C1176,-396 1006,-396 1006,-396 1000,-396 994,-390 994,-384 994,-384 994,-372 994,-372 994,-366 1000,-360 1006,-360 1006,-360 1176,-360 1176,-360 1182,-360 1188,-366 1188,-372 1188,-372 1188,-384 1188,-384 1188,-390 1182,-396 1176,-396"/>
<text text-anchor="middle" x="1091" y="-381" font-family="sans" font-size="10.00">download_FQ_FromSRA_RunID</text>
<text text-anchor="middle" x="1091" y="-370" font-family="sans" font-size="10.00">sampleID_WiIllumina: SRR11140746</text>
</g>
<!-- 62&#45;&gt;52 -->
<g id="edge82" class="edge">
<title>62&#45;&gt;52</title>
<path fill="none" stroke="grey" stroke-width="2" d="M1091,-359.7C1091,-351.98 1091,-342.71 1091,-334.11"/>
<polygon fill="grey" stroke="grey" stroke-width="2" points="1094.5,-334.1 1091,-324.1 1087.5,-334.1 1094.5,-334.1"/>
</g>
<!-- 63 -->
<g id="node64" class="node">
<title>63</title>
<path fill="none" stroke="#d6d856" stroke-width="2" d="M1930,-396C1930,-396 1760,-396 1760,-396 1754,-396 1748,-390 1748,-384 1748,-384 1748,-372 1748,-372 1748,-366 1754,-360 1760,-360 1760,-360 1930,-360 1930,-360 1936,-360 1942,-366 1942,-372 1942,-372 1942,-384 1942,-384 1942,-390 1936,-396 1930,-396"/>
<text text-anchor="middle" x="1845" y="-381" font-family="sans" font-size="10.00">download_FQ_FromSRA_RunID</text>
<text text-anchor="middle" x="1845" y="-370" font-family="sans" font-size="10.00">sampleID_WiIllumina: SRR11140748</text>
</g>
<!-- 63&#45;&gt;53 -->
<g id="edge83" class="edge">
<title>63&#45;&gt;53</title>
<path fill="none" stroke="grey" stroke-width="2" d="M1845,-359.7C1845,-351.98 1845,-342.71 1845,-334.11"/>
<polygon fill="grey" stroke="grey" stroke-width="2" points="1848.5,-334.1 1845,-324.1 1841.5,-334.1 1848.5,-334.1"/>
</g>
<!-- 64 -->
<g id="node65" class="node">
<title>64</title>
<path fill="none" stroke="#d6d856" stroke-width="2" d="M2684,-396C2684,-396 2514,-396 2514,-396 2508,-396 2502,-390 2502,-384 2502,-384 2502,-372 2502,-372 2502,-366 2508,-360 2514,-360 2514,-360 2684,-360 2684,-360 2690,-360 2696,-366 2696,-372 2696,-372 2696,-384 2696,-384 2696,-390 2690,-396 2684,-396"/>
<text text-anchor="middle" x="2599" y="-381" font-family="sans" font-size="10.00">download_FQ_FromSRA_RunID</text>
<text text-anchor="middle" x="2599" y="-370" font-family="sans" font-size="10.00">sampleID_WiIllumina: SRR11140750</text>
</g>
<!-- 64&#45;&gt;54 -->
<g id="edge84" class="edge">
<title>64&#45;&gt;54</title>
<path fill="none" stroke="grey" stroke-width="2" d="M2599,-359.7C2599,-351.98 2599,-342.71 2599,-334.11"/>
<polygon fill="grey" stroke="grey" stroke-width="2" points="2602.5,-334.1 2599,-324.1 2595.5,-334.1 2602.5,-334.1"/>
</g>
<!-- 65 -->
<g id="node66" class="node">
<title>65</title>
<path fill="none" stroke="#d6d856" stroke-width="2" d="M3438,-396C3438,-396 3268,-396 3268,-396 3262,-396 3256,-390 3256,-384 3256,-384 3256,-372 3256,-372 3256,-366 3262,-360 3268,-360 3268,-360 3438,-360 3438,-360 3444,-360 3450,-366 3450,-372 3450,-372 3450,-384 3450,-384 3450,-390 3444,-396 3438,-396"/>
<text text-anchor="middle" x="3353" y="-381" font-family="sans" font-size="10.00">download_FQ_FromSRA_RunID</text>
<text text-anchor="middle" x="3353" y="-370" font-family="sans" font-size="10.00">sampleID_WiIllumina: SRR11514749</text>
</g>
<!-- 65&#45;&gt;55 -->
<g id="edge85" class="edge">
<title>65&#45;&gt;55</title>
<path fill="none" stroke="grey" stroke-width="2" d="M3353,-359.7C3353,-351.98 3353,-342.71 3353,-334.11"/>
<polygon fill="grey" stroke="grey" stroke-width="2" points="3356.5,-334.1 3353,-324.1 3349.5,-334.1 3356.5,-334.1"/>
</g>
<!-- 66 -->
<g id="node67" class="node">
<title>66</title>
<path fill="none" stroke="#d6d856" stroke-width="2" d="M4192,-396C4192,-396 4022,-396 4022,-396 4016,-396 4010,-390 4010,-384 4010,-384 4010,-372 4010,-372 4010,-366 4016,-360 4022,-360 4022,-360 4192,-360 4192,-360 4198,-360 4204,-366 4204,-372 4204,-372 4204,-384 4204,-384 4204,-390 4198,-396 4192,-396"/>
<text text-anchor="middle" x="4107" y="-381" font-family="sans" font-size="10.00">download_FQ_FromSRA_RunID</text>
<text text-anchor="middle" x="4107" y="-370" font-family="sans" font-size="10.00">sampleID_WiIllumina: SRR11514750</text>
</g>
<!-- 66&#45;&gt;56 -->
<g id="edge86" class="edge">
<title>66&#45;&gt;56</title>
<path fill="none" stroke="grey" stroke-width="2" d="M4107,-359.7C4107,-351.98 4107,-342.71 4107,-334.11"/>
<polygon fill="grey" stroke="grey" stroke-width="2" points="4110.5,-334.1 4107,-324.1 4103.5,-334.1 4110.5,-334.1"/>
</g>
<!-- 67 -->
<g id="node68" class="node">
<title>67</title>
<path fill="none" stroke="#d6d856" stroke-width="2" d="M4946,-396C4946,-396 4776,-396 4776,-396 4770,-396 4764,-390 4764,-384 4764,-384 4764,-372 4764,-372 4764,-366 4770,-360 4776,-360 4776,-360 4946,-360 4946,-360 4952,-360 4958,-366 4958,-372 4958,-372 4958,-384 4958,-384 4958,-390 4952,-396 4946,-396"/>
<text text-anchor="middle" x="4861" y="-381" font-family="sans" font-size="10.00">download_FQ_FromSRA_RunID</text>
<text text-anchor="middle" x="4861" y="-370" font-family="sans" font-size="10.00">sampleID_WiIllumina: SRR11542243</text>
</g>
<!-- 67&#45;&gt;57 -->
<g id="edge87" class="edge">
<title>67&#45;&gt;57</title>
<path fill="none" stroke="grey" stroke-width="2" d="M4861,-359.7C4861,-351.98 4861,-342.71 4861,-334.11"/>
<polygon fill="grey" stroke="grey" stroke-width="2" points="4864.5,-334.1 4861,-324.1 4857.5,-334.1 4864.5,-334.1"/>
</g>
<!-- 68 -->
<g id="node69" class="node">
<title>68</title>
<path fill="none" stroke="#d6d856" stroke-width="2" d="M5700,-396C5700,-396 5530,-396 5530,-396 5524,-396 5518,-390 5518,-384 5518,-384 5518,-372 5518,-372 5518,-366 5524,-360 5530,-360 5530,-360 5700,-360 5700,-360 5706,-360 5712,-366 5712,-372 5712,-372 5712,-384 5712,-384 5712,-390 5706,-396 5700,-396"/>
<text text-anchor="middle" x="5615" y="-381" font-family="sans" font-size="10.00">download_FQ_FromSRA_RunID</text>
<text text-anchor="middle" x="5615" y="-370" font-family="sans" font-size="10.00">sampleID_WiIllumina: SRR11542244</text>
</g>
<!-- 68&#45;&gt;58 -->
<g id="edge88" class="edge">
<title>68&#45;&gt;58</title>
<path fill="none" stroke="grey" stroke-width="2" d="M5615,-359.7C5615,-351.98 5615,-342.71 5615,-334.11"/>
<polygon fill="grey" stroke="grey" stroke-width="2" points="5618.5,-334.1 5615,-324.1 5611.5,-334.1 5618.5,-334.1"/>
</g>
<!-- 69 -->
<g id="node70" class="node">
<title>69</title>
<path fill="none" stroke="#d6d856" stroke-width="2" d="M6454,-396C6454,-396 6284,-396 6284,-396 6278,-396 6272,-390 6272,-384 6272,-384 6272,-372 6272,-372 6272,-366 6278,-360 6284,-360 6284,-360 6454,-360 6454,-360 6460,-360 6466,-366 6466,-372 6466,-372 6466,-384 6466,-384 6466,-390 6460,-396 6454,-396"/>
<text text-anchor="middle" x="6369" y="-381" font-family="sans" font-size="10.00">download_FQ_FromSRA_RunID</text>
<text text-anchor="middle" x="6369" y="-370" font-family="sans" font-size="10.00">sampleID_WiIllumina: SRR11476445</text>
</g>
<!-- 69&#45;&gt;59 -->
<g id="edge89" class="edge">
<title>69&#45;&gt;59</title>
<path fill="none" stroke="grey" stroke-width="2" d="M6369,-359.7C6369,-351.98 6369,-342.71 6369,-334.11"/>
<polygon fill="grey" stroke="grey" stroke-width="2" points="6372.5,-334.1 6369,-324.1 6365.5,-334.1 6372.5,-334.1"/>
</g>
<!-- 70 -->
<g id="node71" class="node">
<title>70</title>
<path fill="none" stroke="#d6d856" stroke-width="2" d="M7208,-396C7208,-396 7038,-396 7038,-396 7032,-396 7026,-390 7026,-384 7026,-384 7026,-372 7026,-372 7026,-366 7032,-360 7038,-360 7038,-360 7208,-360 7208,-360 7214,-360 7220,-366 7220,-372 7220,-372 7220,-384 7220,-384 7220,-390 7214,-396 7208,-396"/>
<text text-anchor="middle" x="7123" y="-381" font-family="sans" font-size="10.00">download_FQ_FromSRA_RunID</text>
<text text-anchor="middle" x="7123" y="-370" font-family="sans" font-size="10.00">sampleID_WiIllumina: SRR11476446</text>
</g>
<!-- 70&#45;&gt;60 -->
<g id="edge90" class="edge">
<title>70&#45;&gt;60</title>
<path fill="none" stroke="grey" stroke-width="2" d="M7123,-359.7C7123,-351.98 7123,-342.71 7123,-334.11"/>
<polygon fill="grey" stroke="grey" stroke-width="2" points="7126.5,-334.1 7123,-324.1 7119.5,-334.1 7126.5,-334.1"/>
</g>
</g>
</svg>
