<?xml version="1.0" encoding="UTF-8" standalone="no"?>
<!DOCTYPE svg PUBLIC "-//W3C//DTD SVG 1.1//EN"
 "http://www.w3.org/Graphics/SVG/1.1/DTD/svg11.dtd">
<!-- Generated by graphviz version 2.42.3 (20191010.1750)
 -->
<!-- Title: snakemake_dag Pages: 1 -->
<svg width="1368pt" height="332pt"
 viewBox="0.00 0.00 1368.00 332.00" xmlns="http://www.w3.org/2000/svg" xmlns:xlink="http://www.w3.org/1999/xlink">
<g id="graph0" class="graph" transform="scale(1 1) rotate(0) translate(4 328)">
<title>snakemake_dag</title>
<polygon fill="white" stroke="transparent" points="-4,4 -4,-328 1364,-328 1364,4 -4,4"/>
<!-- 0 -->
<g id="node1" class="node">
<title>0</title>
<path fill="none" stroke="#78d856" stroke-width="2" d="M630,-36C630,-36 600,-36 600,-36 594,-36 588,-30 588,-24 588,-24 588,-12 588,-12 588,-6 594,0 600,0 600,0 630,0 630,0 636,0 642,-6 642,-12 642,-12 642,-24 642,-24 642,-30 636,-36 630,-36"/>
<text text-anchor="middle" x="615" y="-15.5" font-family="sans" font-size="10.00">all</text>
</g>
<!-- 1 -->
<g id="node2" class="node">
<title>1</title>
<path fill="none" stroke="#d85656" stroke-width="2" stroke-dasharray="5,2" d="M190,-108C190,-108 12,-108 12,-108 6,-108 0,-102 0,-96 0,-96 0,-84 0,-84 0,-78 6,-72 12,-72 12,-72 190,-72 190,-72 196,-72 202,-78 202,-84 202,-84 202,-96 202,-96 202,-102 196,-108 190,-108"/>
<text text-anchor="middle" x="101" y="-93" font-family="sans" font-size="10.00">nanoplot_QC</text>
<text text-anchor="middle" x="101" y="-82" font-family="sans" font-size="10.00">sampleID_WiNanopore: SRR11140745</text>
</g>
<!-- 1&#45;&gt;0 -->
<g id="edge1" class="edge">
<title>1&#45;&gt;0</title>
<path fill="none" stroke="grey" stroke-width="2" d="M202.28,-73.26C205.22,-72.83 208.13,-72.41 211,-72 345.55,-52.78 505.71,-32.56 577.24,-23.66"/>
<polygon fill="grey" stroke="grey" stroke-width="2" points="578.05,-27.09 587.54,-22.38 577.18,-20.14 578.05,-27.09"/>
</g>
<!-- 2 -->
<g id="node3" class="node">
<title>2</title>
<path fill="none" stroke="#59d856" stroke-width="2" stroke-dasharray="5,2" d="M373.5,-108C373.5,-108 232.5,-108 232.5,-108 226.5,-108 220.5,-102 220.5,-96 220.5,-96 220.5,-84 220.5,-84 220.5,-78 226.5,-72 232.5,-72 232.5,-72 373.5,-72 373.5,-72 379.5,-72 385.5,-78 385.5,-84 385.5,-84 385.5,-96 385.5,-96 385.5,-102 379.5,-108 373.5,-108"/>
<text text-anchor="middle" x="303" y="-87.5" font-family="sans" font-size="10.00">samtools_faidx_FlyeAssembly</text>
</g>
<!-- 2&#45;&gt;0 -->
<g id="edge2" class="edge">
<title>2&#45;&gt;0</title>
<path fill="none" stroke="grey" stroke-width="2" d="M378.92,-71.97C442.07,-57.8 529.24,-38.24 578.06,-27.29"/>
<polygon fill="grey" stroke="grey" stroke-width="2" points="578.88,-30.69 587.87,-25.09 577.34,-23.86 578.88,-30.69"/>
</g>
<!-- 3 -->
<g id="node4" class="node">
<title>3</title>
<path fill="none" stroke="#56d8d8" stroke-width="2" d="M594,-108C594,-108 416,-108 416,-108 410,-108 404,-102 404,-96 404,-96 404,-84 404,-84 404,-78 410,-72 416,-72 416,-72 594,-72 594,-72 600,-72 606,-78 606,-84 606,-84 606,-96 606,-96 606,-102 600,-108 594,-108"/>
<text text-anchor="middle" x="505" y="-93" font-family="sans" font-size="10.00">unicycler_Assemble_Nanopore_WGS</text>
<text text-anchor="middle" x="505" y="-82" font-family="sans" font-size="10.00">sampleID_WiNanopore: SRR11140745</text>
</g>
<!-- 3&#45;&gt;0 -->
<g id="edge3" class="edge">
<title>3&#45;&gt;0</title>
<path fill="none" stroke="grey" stroke-width="2" d="M531.91,-71.88C546.16,-62.81 563.85,-51.55 579.24,-41.76"/>
<polygon fill="grey" stroke="grey" stroke-width="2" points="581.43,-44.51 587.99,-36.19 577.67,-38.61 581.43,-44.51"/>
</g>
<!-- 4 -->
<g id="node5" class="node">
<title>4</title>
<path fill="none" stroke="#569ad8" stroke-width="2" d="M814,-108C814,-108 636,-108 636,-108 630,-108 624,-102 624,-96 624,-96 624,-84 624,-84 624,-78 630,-72 636,-72 636,-72 814,-72 814,-72 820,-72 826,-78 826,-84 826,-84 826,-96 826,-96 826,-102 820,-108 814,-108"/>
<text text-anchor="middle" x="725" y="-93" font-family="sans" font-size="10.00">samtools_faidx_SPAdesAssembly</text>
<text text-anchor="middle" x="725" y="-82" font-family="sans" font-size="10.00">sampleID_WiNanopore: SRR11140750</text>
</g>
<!-- 4&#45;&gt;0 -->
<g id="edge4" class="edge">
<title>4&#45;&gt;0</title>
<path fill="none" stroke="grey" stroke-width="2" d="M698.09,-71.88C683.84,-62.81 666.15,-51.55 650.76,-41.76"/>
<polygon fill="grey" stroke="grey" stroke-width="2" points="652.33,-38.61 642.01,-36.19 648.57,-44.51 652.33,-38.61"/>
</g>
<!-- 5 -->
<g id="node6" class="node">
<title>5</title>
<path fill="none" stroke="#567bd8" stroke-width="2" d="M1066,-108C1066,-108 856,-108 856,-108 850,-108 844,-102 844,-96 844,-96 844,-84 844,-84 844,-78 850,-72 856,-72 856,-72 1066,-72 1066,-72 1072,-72 1078,-78 1078,-84 1078,-84 1078,-96 1078,-96 1078,-102 1072,-108 1066,-108"/>
<text text-anchor="middle" x="961" y="-87.5" font-family="sans" font-size="10.00">Minimap2_Ill_SPAdes_Assembly_AlignTo_Ref</text>
</g>
<!-- 5&#45;&gt;0 -->
<g id="edge5" class="edge">
<title>5&#45;&gt;0</title>
<path fill="none" stroke="grey" stroke-width="2" d="M876.8,-71.97C805.16,-57.47 705.66,-37.34 652.32,-26.55"/>
<polygon fill="grey" stroke="grey" stroke-width="2" points="652.78,-23.07 642.28,-24.52 651.39,-29.93 652.78,-23.07"/>
</g>
<!-- 6 -->
<g id="node7" class="node">
<title>6</title>
<path fill="none" stroke="#56d87b" stroke-width="2" d="M1348,-108C1348,-108 1108,-108 1108,-108 1102,-108 1096,-102 1096,-96 1096,-96 1096,-84 1096,-84 1096,-78 1102,-72 1108,-72 1108,-72 1348,-72 1348,-72 1354,-72 1360,-78 1360,-84 1360,-84 1360,-96 1360,-96 1360,-102 1354,-108 1348,-108"/>
<text text-anchor="middle" x="1228" y="-87.5" font-family="sans" font-size="10.00">NucDiff_Analysis_G3_PP_vs_H37rv_WithVCFoutput</text>
</g>
<!-- 6&#45;&gt;0 -->
<g id="edge6" class="edge">
<title>6&#45;&gt;0</title>
<path fill="none" stroke="grey" stroke-width="2" d="M1095.91,-73.04C1092.91,-72.69 1089.94,-72.34 1087,-72 925.13,-53.15 731.89,-31.82 652.18,-23.07"/>
<polygon fill="grey" stroke="grey" stroke-width="2" points="652.47,-19.58 642.15,-21.97 651.7,-26.54 652.47,-19.58"/>
</g>
<!-- 7 -->
<g id="node8" class="node">
<title>7</title>
<path fill="none" stroke="#d87556" stroke-width="2" stroke-dasharray="5,2" d="M388,-180C388,-180 218,-180 218,-180 212,-180 206,-174 206,-168 206,-168 206,-156 206,-156 206,-150 212,-144 218,-144 218,-144 388,-144 388,-144 394,-144 400,-150 400,-156 400,-156 400,-168 400,-168 400,-174 394,-180 388,-180"/>
<text text-anchor="middle" x="303" y="-159.5" font-family="sans" font-size="10.00">rename_FlyeAssembly_WithBioAWK</text>
</g>
<!-- 7&#45;&gt;2 -->
<g id="edge7" class="edge">
<title>7&#45;&gt;2</title>
<path fill="none" stroke="grey" stroke-width="2" d="M303,-143.7C303,-135.98 303,-126.71 303,-118.11"/>
<polygon fill="grey" stroke="grey" stroke-width="2" points="306.5,-118.1 303,-108.1 299.5,-118.1 306.5,-118.1"/>
</g>
<!-- 8 -->
<g id="node9" class="node">
<title>8</title>
<path fill="none" stroke="#d8b456" stroke-width="2" d="M1053.5,-180C1053.5,-180 868.5,-180 868.5,-180 862.5,-180 856.5,-174 856.5,-168 856.5,-168 856.5,-156 856.5,-156 856.5,-150 862.5,-144 868.5,-144 868.5,-144 1053.5,-144 1053.5,-144 1059.5,-144 1065.5,-150 1065.5,-156 1065.5,-156 1065.5,-168 1065.5,-168 1065.5,-174 1059.5,-180 1053.5,-180"/>
<text text-anchor="middle" x="961" y="-159.5" font-family="sans" font-size="10.00">rename_SPAdesAssembly_WithBioAWK</text>
</g>
<!-- 8&#45;&gt;4 -->
<g id="edge8" class="edge">
<title>8&#45;&gt;4</title>
<path fill="none" stroke="grey" stroke-width="2" d="M903.57,-143.97C870.02,-134.01 827.51,-121.41 792.39,-110.99"/>
<polygon fill="grey" stroke="grey" stroke-width="2" points="793.27,-107.6 782.69,-108.11 791.28,-114.31 793.27,-107.6"/>
</g>
<!-- 8&#45;&gt;5 -->
<g id="edge9" class="edge">
<title>8&#45;&gt;5</title>
<path fill="none" stroke="grey" stroke-width="2" d="M961,-143.7C961,-135.98 961,-126.71 961,-118.11"/>
<polygon fill="grey" stroke="grey" stroke-width="2" points="964.5,-118.1 961,-108.1 957.5,-118.1 964.5,-118.1"/>
</g>
<!-- 8&#45;&gt;6 -->
<g id="edge10" class="edge">
<title>8&#45;&gt;6</title>
<path fill="none" stroke="grey" stroke-width="2" d="M1025.97,-143.97C1064.33,-133.91 1113.05,-121.14 1153.03,-110.65"/>
<polygon fill="grey" stroke="grey" stroke-width="2" points="1153.95,-114.03 1162.73,-108.11 1152.17,-107.26 1153.95,-114.03"/>
</g>
<!-- 9 -->
<g id="node10" class="node">
<title>9</title>
<path fill="none" stroke="#d6d856" stroke-width="2" stroke-dasharray="5,2" d="M392,-252C392,-252 214,-252 214,-252 208,-252 202,-246 202,-240 202,-240 202,-228 202,-228 202,-222 208,-216 214,-216 214,-216 392,-216 392,-216 398,-216 404,-222 404,-228 404,-228 404,-240 404,-240 404,-246 398,-252 392,-252"/>
<text text-anchor="middle" x="303" y="-237" font-family="sans" font-size="10.00">flye_Assemble</text>
<text text-anchor="middle" x="303" y="-226" font-family="sans" font-size="10.00">sampleID_WiNanopore: SRR11140745</text>
</g>
<!-- 9&#45;&gt;7 -->
<g id="edge11" class="edge">
<title>9&#45;&gt;7</title>
<path fill="none" stroke="grey" stroke-width="2" d="M303,-215.7C303,-207.98 303,-198.71 303,-190.11"/>
<polygon fill="grey" stroke="grey" stroke-width="2" points="306.5,-190.1 303,-180.1 299.5,-190.1 306.5,-190.1"/>
</g>
<!-- 10 -->
<g id="node11" class="node">
<title>10</title>
<path fill="none" stroke="#97d856" stroke-width="2" d="M1060.5,-252C1060.5,-252 861.5,-252 861.5,-252 855.5,-252 849.5,-246 849.5,-240 849.5,-240 849.5,-228 849.5,-228 849.5,-222 855.5,-216 861.5,-216 861.5,-216 1060.5,-216 1060.5,-216 1066.5,-216 1072.5,-222 1072.5,-228 1072.5,-228 1072.5,-240 1072.5,-240 1072.5,-246 1066.5,-252 1060.5,-252"/>
<text text-anchor="middle" x="961" y="-231.5" font-family="sans" font-size="10.00">unicycler_SPAdes_Assemble_IlluminaWGS</text>
</g>
<!-- 10&#45;&gt;8 -->
<g id="edge12" class="edge">
<title>10&#45;&gt;8</title>
<path fill="none" stroke="grey" stroke-width="2" d="M961,-215.7C961,-207.98 961,-198.71 961,-190.11"/>
<polygon fill="grey" stroke="grey" stroke-width="2" points="964.5,-190.1 961,-180.1 957.5,-190.1 964.5,-190.1"/>
</g>
<!-- 11 -->
<g id="node12" class="node">
<title>11</title>
<path fill="none" stroke="#56b9d8" stroke-width="2" stroke-dasharray="5,2" d="M1046,-324C1046,-324 876,-324 876,-324 870,-324 864,-318 864,-312 864,-312 864,-300 864,-300 864,-294 870,-288 876,-288 876,-288 1046,-288 1046,-288 1052,-288 1058,-294 1058,-300 1058,-300 1058,-312 1058,-312 1058,-318 1052,-324 1046,-324"/>
<text text-anchor="middle" x="961" y="-309" font-family="sans" font-size="10.00">trimmomatic_Illumina_PE_Trimming</text>
<text text-anchor="middle" x="961" y="-298" font-family="sans" font-size="10.00">sampleID_WiIllumina: SRR11140750</text>
</g>
<!-- 11&#45;&gt;10 -->
<g id="edge13" class="edge">
<title>11&#45;&gt;10</title>
<path fill="none" stroke="grey" stroke-width="2" d="M961,-287.7C961,-279.98 961,-270.71 961,-262.11"/>
<polygon fill="grey" stroke="grey" stroke-width="2" points="964.5,-262.1 961,-252.1 957.5,-262.1 964.5,-262.1"/>
</g>
</g>
</svg>
